<svg xmlns="http://www.w3.org/2000/svg" viewBox="0 0 80 80"><defs><style>.cls-1,.cls-3{fill:#21b752;}.cls-2{fill:#fff;}.cls-2,.cls-3{fill-rule:evenodd;}</style></defs><title>資產 5</title><g id="圖層_2" data-name="圖層 2"><g id="圖層_1-2" data-name="圖層 1"><rect class="cls-1" width="80" height="80" rx="3.78" ry="3.78"/><g id="_群組_" data-name="&lt;群組&gt;"><path id="_路徑_" data-name="&lt;路徑&gt;" class="cls-2" d="M40,10.56c17.18,0,31.22,11.4,31.22,25.27,0,7.43-3.8,13.88-10.08,18.5C48.09,65.57,40.83,68.7,40.83,68.7c-2.81,1.49-3.3.66-3-2,.33-1.65.66-3.8.66-3.8.33-1.49-1.32-1.82-2-2H36.2C20.67,59.45,8.78,48.72,8.78,35.83,8.78,22,22.82,10.56,40,10.56Z"/><path id="_複合路徑_" data-name="&lt;複合路徑&gt;" class="cls-3" d="M19.35,43.1H29.1V40.46H22.33V29.06h-3Zm11.4,0h3v-14h-3Zm15.2-14v8.59l-6.61-8.59H36.86v14h3V34.68l6.61,8.42h2.48v-14ZM55,40.62v-3.3h6.28V34.84H55V31.7h6.28V29.06H52.06v14h9.25V40.62Z"/></g></g></g></svg>