<svg xmlns="http://www.w3.org/2000/svg" viewBox="0 0 39.93 39.43"><defs><style>.cls-1{fill:#fcff9f;}</style></defs><title>資產 1</title><g id="圖層_2" data-name="圖層 2"><g id="圖層_1-2" data-name="圖層 1"><path class="cls-1" d="M26.09,34.78a9.48,9.48,0,1,1,9.48-9.48A9.49,9.49,0,0,1,26.09,34.78Zm0-16.73a7.25,7.25,0,1,0,7.25,7.25A7.26,7.26,0,0,0,26.09,18.05Z"/><path class="cls-1" d="M26.09,35a9.65,9.65,0,1,1,9.65-9.65A9.66,9.66,0,0,1,26.09,35Zm0-19a9.31,9.31,0,1,0,9.31,9.31A9.32,9.32,0,0,0,26.09,16Zm0,16.73a7.42,7.42,0,1,1,7.42-7.42A7.43,7.43,0,0,1,26.09,32.73Zm0-14.5a7.07,7.07,0,1,0,7.08,7.07A7.08,7.08,0,0,0,26.09,18.23Z"/><path class="cls-1" d="M38.64,39.25a1.11,1.11,0,0,1-.81-.35l-6.57-7a1.12,1.12,0,1,1,1.63-1.53l6.57,7a1.11,1.11,0,0,1-.81,1.88Z"/><path class="cls-1" d="M38.64,39.43A1.29,1.29,0,0,1,37.7,39l-6.57-7a1.29,1.29,0,0,1,.06-1.82,1.29,1.29,0,0,1,1.82.06l6.57,7a1.29,1.29,0,0,1-.94,2.17ZM32.07,30.2a.94.94,0,0,0-.69,1.58l6.57,7a1,1,0,0,0,1.33,0,.94.94,0,0,0,0-1.33l-6.57-7A.94.94,0,0,0,32.07,30.2Z"/><path class="cls-1" d="M16.67,7H9A.87.87,0,1,0,9,8.73h7.68a.87.87,0,1,0,0-1.75Z"/><path class="cls-1" d="M17.55,13.79a.88.88,0,0,0-.87-.87H9a.87.87,0,1,0,0,1.75h7.68A.88.88,0,0,0,17.55,13.79Z"/><path class="cls-1" d="M13,18.2H9a.87.87,0,1,0,0,1.75H13a.87.87,0,1,0,0-1.75Z"/><path class="cls-1" d="M13,24.13H9a.87.87,0,0,0,0,1.75H13a.87.87,0,0,0,0-1.75Z"/><path class="cls-1" d="M30.63,10a3,3,0,0,0-.9-1.9c-1-.94-1.91-1.9-2.84-2.83C25.46,3.86,24,2.37,22.48.95A3.24,3.24,0,0,0,20.55,0C16.12,0,11.61,0,7.25,0H5.74a2.1,2.1,0,0,0-2.3,2.06A2.31,2.31,0,0,1,2.22,3.59,3.32,3.32,0,0,0,0,6.93q0,5.16,0,10.31C0,22,0,26.93,0,31.78c0,2.3,1.14,3.43,3.46,3.45,3.52,0,7.09,0,10.55,0h3.63a.84.84,0,1,0,0-1.68H5.53c-3.85,0-3.89,0-3.89-4q0-10.94,0-21.89V7.56c0-.92,0-2,1.71-2.26l.13,0V14.1c0,4.93,0,10,0,15.05,0,1.78.54,2.56,1.82,2.61,2.13.08,4.28.06,6.37,0h2.59a.84.84,0,0,0,0-1.68H11.08c-1.18,0-2.43,0-3.69,0a2.19,2.19,0,0,1-1.72-.39,2.23,2.23,0,0,1-.48-1.72c.06-6,.05-12.06,0-17.93q0-3.21,0-6.42V1.75H7.83c3.78,0,7.34,0,11,.05.36,0,.82.85.85,1.29.06.93.06,1.88,0,2.8,0,.49,0,1,0,1.48,0,2.47,1.16,3.59,3.63,3.65,1.08,0,2.19,0,3.29,0h.22c.93,0,1.9-.06,2.13,1v1.36a.84.84,0,1,0,1.68,0v-3.1a.88.88,0,0,0,0-.23Zm-3.2-.83-1.33,0-1.25,0a18.45,18.45,0,0,1-1.93-.09,1.93,1.93,0,0,1-1.4-1.23,27.15,27.15,0,0,1-.08-3.35c0-.4,0-.8,0-1.19V3.1l6.27,6.1Z"/></g></g></svg>