<svg xmlns="http://www.w3.org/2000/svg" viewBox="0 0 81.02 80"><defs><style>.cls-1{fill:#192d79;}</style></defs><title>資產 3</title><g id="圖層_2" data-name="圖層 2"><g id="圖層_1-2" data-name="圖層 1"><path class="cls-1" d="M52.94,70.58A19.24,19.24,0,1,1,72.17,51.35,19.26,19.26,0,0,1,52.94,70.58Zm0-33.95A14.71,14.71,0,1,0,67.65,51.35,14.73,14.73,0,0,0,52.94,36.64Z"/><path class="cls-1" d="M52.94,70.93A19.59,19.59,0,1,1,72.53,51.35,19.61,19.61,0,0,1,52.94,70.93Zm0-38.47A18.88,18.88,0,1,0,71.82,51.35,18.9,18.9,0,0,0,52.94,32.46Zm0,33.95A15.06,15.06,0,1,1,68,51.35,15.08,15.08,0,0,1,52.94,66.41Zm0-29.42A14.36,14.36,0,1,0,67.29,51.35,14.37,14.37,0,0,0,52.94,37Z"/><path class="cls-1" d="M78.4,79.65a2.25,2.25,0,0,1-1.65-.71L63.43,64.74a2.26,2.26,0,1,1,3.3-3.1L80.05,75.83a2.26,2.26,0,0,1-1.65,3.81Z"/><path class="cls-1" d="M78.4,80a2.62,2.62,0,0,1-1.91-.83L63.17,65a2.61,2.61,0,0,1,.12-3.7,2.62,2.62,0,0,1,3.7.12L80.31,75.59A2.62,2.62,0,0,1,78.4,80ZM65.08,61.29a1.91,1.91,0,0,0-1.39,3.21L77,78.69a2,2,0,0,0,2.7.08,1.91,1.91,0,0,0,.08-2.7L66.47,61.89A1.9,1.9,0,0,0,65.08,61.29Z"/><path class="cls-1" d="M33.83,14.18H18.25a1.77,1.77,0,1,0,0,3.55H33.83a1.77,1.77,0,1,0,0-3.55Z"/><path class="cls-1" d="M35.61,28a1.78,1.78,0,0,0-1.77-1.77H18.25a1.77,1.77,0,1,0,0,3.55H33.83A1.78,1.78,0,0,0,35.61,28Z"/><path class="cls-1" d="M26.48,36.92H18.25a1.77,1.77,0,0,0,0,3.55h8.22a1.77,1.77,0,1,0,0-3.55Z"/><path class="cls-1" d="M26.48,49H18.25a1.77,1.77,0,0,0,0,3.55h8.22a1.77,1.77,0,1,0,0-3.55Z"/><path class="cls-1" d="M62.14,20.35a6.06,6.06,0,0,0-1.82-3.85c-1.93-1.9-3.88-3.85-5.76-5.74-2.91-2.92-5.92-5.94-8.95-8.84A6.58,6.58,0,0,0,41.7.1c-9-.14-18.14-.1-27-.07H11.64C8.88.05,7.39,1.38,7,4.21A4.68,4.68,0,0,1,4.5,7.28,6.73,6.73,0,0,0,0,14.06Q0,24.52,0,35c0,9.67,0,19.67,0,29.51,0,4.66,2.31,7,7,7,7.14.07,14.4.05,21.41,0h7.37a1.71,1.71,0,1,0,0-3.42H11.22c-7.81,0-7.88-.08-7.89-8q0-22.21,0-44.42v-.32c0-1.86,0-4,3.46-4.59l.27,0V28.6c0,10,0,20.36,0,30.55,0,3.61,1.09,5.2,3.69,5.3,4.31.16,8.69.13,12.93.09l4.75,0h.5a1.71,1.71,0,0,0-.06-3.41H22.48c-2.39,0-4.94,0-7.49.09-1.76.09-2.8-.14-3.49-.79s-1-1.73-1-3.48c.12-12.13.1-24.46.08-36.39q0-6.52,0-13v-4H15.9c7.67,0,14.9,0,22.24.11.73,0,1.66,1.72,1.73,2.62C40,8.16,40,10.09,40,12c0,1,0,2,0,3,.07,5,2.34,7.29,7.37,7.41,2.2.05,4.44,0,6.67,0h.46c1.89-.06,3.85-.12,4.33,2v2.76a1.71,1.71,0,1,0,3.42,0V20.85a1.78,1.78,0,0,0-.07-.47Zm-6.49-1.68c-.92,0-1.82,0-2.71,0s-1.71,0-2.55,0a37.43,37.43,0,0,1-3.91-.17c-1-.11-2.74-1.47-2.85-2.5a55.1,55.1,0,0,1-.16-6.8c0-.82,0-1.63,0-2.41V6.28L56.22,18.66Z"/></g></g></svg>