<svg xmlns="http://www.w3.org/2000/svg" viewBox="0 0 47.75 47.15"><defs><style>.cls-1{fill:#fcee21;}</style></defs><title>資產 3</title><g id="圖層_2" data-name="圖層 2"><g id="圖層_1-2" data-name="圖層 1"><path class="cls-1" d="M31.2,41.6A11.34,11.34,0,1,1,42.53,30.26,11.35,11.35,0,0,1,31.2,41.6Zm0-20a8.67,8.67,0,1,0,8.67,8.67A8.68,8.68,0,0,0,31.2,21.59Z"/><path class="cls-1" d="M31.2,41.8A11.54,11.54,0,1,1,42.74,30.26,11.56,11.56,0,0,1,31.2,41.8Zm0-22.67A11.13,11.13,0,1,0,42.32,30.26,11.14,11.14,0,0,0,31.2,19.13Zm0,20a8.88,8.88,0,1,1,8.88-8.88A8.89,8.89,0,0,1,31.2,39.14Zm0-17.34a8.46,8.46,0,1,0,8.46,8.46A8.47,8.47,0,0,0,31.2,21.8Z"/><path class="cls-1" d="M46.21,46.94a1.33,1.33,0,0,1-1-.42l-7.85-8.36a1.33,1.33,0,1,1,1.94-1.83l7.85,8.36a1.33,1.33,0,0,1-1,2.25Z"/><path class="cls-1" d="M46.21,47.15a1.55,1.55,0,0,1-1.12-.49L37.23,38.3a1.54,1.54,0,0,1,.07-2.18,1.54,1.54,0,0,1,2.18.07l7.85,8.36a1.54,1.54,0,0,1-1.12,2.6Zm-7.85-11A1.12,1.12,0,0,0,37.53,38l7.85,8.36a1.16,1.16,0,0,0,1.59.05,1.12,1.12,0,0,0,0-1.59l-7.85-8.36A1.12,1.12,0,0,0,38.35,36.12Z"/><path class="cls-1" d="M19.94,8.35H10.76a1,1,0,1,0,0,2.09h9.18a1,1,0,0,0,0-2.09Z"/><path class="cls-1" d="M21,16.5a1,1,0,0,0-1-1H10.76a1,1,0,1,0,0,2.09h9.18A1,1,0,0,0,21,16.5Z"/><path class="cls-1" d="M15.6,21.76H10.76a1,1,0,1,0,0,2.09H15.6a1,1,0,0,0,0-2.09Z"/><path class="cls-1" d="M15.6,28.86H10.76a1,1,0,1,0,0,2.09H15.6a1,1,0,0,0,0-2.09Z"/><path class="cls-1" d="M36.62,12a3.57,3.57,0,0,0-1.07-2.27c-1.14-1.12-2.28-2.27-3.39-3.38-1.71-1.72-3.49-3.5-5.27-5.21A3.88,3.88,0,0,0,24.57.06C19.28,0,13.89,0,8.67,0H6.86A2.51,2.51,0,0,0,4.1,2.48,2.76,2.76,0,0,1,2.65,4.29,4,4,0,0,0,0,8.28q0,6.16,0,12.33C0,26.31,0,32.21,0,38c0,2.75,1.36,4.1,4.13,4.12,4.21,0,8.48,0,12.62,0h4.34a1,1,0,1,0,0-2H6.61C2,40.13,2,40.09,2,35.4Q2,22.31,2,9.22V9c0-1.1,0-2.34,2-2.71l.16,0V16.86c0,5.9,0,12,0,18,0,2.13.65,3.06,2.17,3.12,2.54.1,5.12.08,7.62.06l2.8,0H17a1,1,0,0,0,0-2H13.25c-1.41,0-2.91,0-4.42.06a2.62,2.62,0,0,1-2.06-.47,2.66,2.66,0,0,1-.57-2.05c.07-7.15.06-14.42.05-21.45q0-3.84,0-7.68V2.09H9.37c4.52,0,8.78,0,13.11.06.43,0,1,1,1,1.54.08,1.12.07,2.25.06,3.35,0,.59,0,1.18,0,1.77,0,2.95,1.38,4.29,4.35,4.36,1.29,0,2.62,0,3.93,0h.27c1.12,0,2.27-.07,2.55,1.2V16a1,1,0,0,0,2,0V12.29a1,1,0,0,0,0-.28ZM32.8,11l-1.6,0-1.5,0a22.05,22.05,0,0,1-2.31-.1,2.31,2.31,0,0,1-1.68-1.48,32.49,32.49,0,0,1-.09-4c0-.48,0-1,0-1.42V3.7L33.13,11Z"/></g></g></svg>