<svg xmlns="http://www.w3.org/2000/svg" viewBox="0 0 380.46 66.36"><defs><style>.cls-1{fill:#192d79;}.cls-2{fill:#1b91d0;}</style></defs><title>資產 15</title><g id="圖層_2" data-name="圖層 2"><g id="圖層_1-2" data-name="圖層 1"><path class="cls-1" d="M97.83,31.05a15.08,15.08,0,0,0-5-1.54,19.3,19.3,0,0,0-5.32.11,29.76,29.76,0,0,0-5.13,1.32,56.91,56.91,0,0,0-9.43,4.49c-3,1.73-5.86,3.61-8.69,5.52l-3.88,2.67q.86.44,1.73.91c1,.54,2,1.11,3,1.7L67,44.71c2.64-2.08,5.28-4.14,8-6.05,1.35-1,2.73-1.88,4.13-2.74a46,46,0,0,1,4.3-2.37,22.65,22.65,0,0,1,9.29-2.48,15,15,0,0,1,4.8.76A17.87,17.87,0,0,1,102,34.1a16.76,16.76,0,0,0-4.13-3M54.56,47.61c-.95.64-1.89,1.29-2.85,1.91-1.39.92-2.78,1.83-4.18,2.69A80.11,80.11,0,0,1,39,56.87q-1.09.5-2.19.93c-.73.29-1.48.56-2.17.78l-.26.09-.3.09-.61.19c-.31.1-.69.18-1,.27l-1.07.22-1.09.17a27,27,0,0,1-9-.44,22.12,22.12,0,0,1-8-3.45A16.16,16.16,0,0,1,8,49.31a19.38,19.38,0,0,1-1.27-4.08,25.6,25.6,0,0,1-.38-4.35c0-.09,0-.17,0-.27v-.32l0-.63,0-.63v-.37l0-.14c.1-.74.13-1.5.29-2.22A19.31,19.31,0,0,1,8,32.08a16.71,16.71,0,0,1,5.19-6.81,24.45,24.45,0,0,1,8.13-4.06,34.54,34.54,0,0,1,4.63-1c.79-.11,1.58-.23,2.37-.29l1.18-.09,1.12,0h1.68l.44-1.46.29-1,.14-.48c.05-.16.12-.31.18-.47l.36-.93.42-.91.21-.45.24-.44c.16-.29.32-.59.49-.87.37-.56.72-1.13,1.14-1.66s.85-1,1.29-1.57.94-1,1.46-1.44c.25-.24.51-.46.78-.68s.53-.45.81-.65l.84-.62.87-.58c.29-.2.6-.37.89-.55s.61-.36.92-.52c.62-.34,1.25-.65,1.89-1l1-.44,1-.41c.67-.26,1.34-.51,2-.73Q52,1.3,54.1.81C54.81.65,55.52.5,56.24.38S57.68.14,58.41.06A32.07,32.07,0,0,0,54,.09c-.74.05-1.47.12-2.21.21s-1.47.21-2.2.35-1.46.3-2.19.47l-1.09.29-1.08.32c-.72.23-1.43.47-2.13.76q-.53.2-1,.44c-.35.16-.7.3-1,.48l-1,.52-1,.57c-.34.19-.65.41-1,.62s-.64.43-1,.66c-.64.45-1.23,1-1.83,1.46a22.88,22.88,0,0,0-1.67,1.66c-.55.57-1,1.2-1.52,1.82-.24.32-.45.65-.68,1l-.33.49-.3.51-.6,1-.52,1.07c-.08.18-.18.36-.25.54l0,.12H28.07c-.9,0-1.79.05-2.69.12a39.38,39.38,0,0,0-5.34.82A28.8,28.8,0,0,0,9.85,20.8a22.34,22.34,0,0,0-7.39,8.83A14.22,14.22,0,0,0,1.89,31a13.39,13.39,0,0,0-.49,1.36L1,33.71c-.12.46-.21.93-.31,1.39C.44,36,.36,37,.22,37.89l0,.18v0a.67.67,0,0,0,0,.14v.08l0,.32,0,.63,0,.63,0,.32c0,.11,0,.24,0,.36a28.44,28.44,0,0,0,0,2.91,27.86,27.86,0,0,0,.31,2.85A25.85,25.85,0,0,0,2,52a22.49,22.49,0,0,0,7.4,9.14,27.74,27.74,0,0,0,10.5,4.53,31.81,31.81,0,0,0,11.23.4l1.41-.24c.47-.11.94-.2,1.41-.32s.93-.24,1.42-.41l.6-.2.3-.1.34-.12c.91-.32,1.74-.66,2.58-1s1.65-.74,2.45-1.13a74.35,74.35,0,0,0,9.07-5.38c2.87-1.95,5.61-4,8.3-6.11l.28-.22c-1-.69-2-1.36-2.9-2q-.93-.62-1.84-1.19"/><path class="cls-2" d="M65.84,33.18l.33-.26c.22-.17.54-.42,1-.73s1-.69,1.62-1.12,1.39-.92,2.25-1.44a65.75,65.75,0,0,1,6.37-3.44,50.52,50.52,0,0,1,8.92-3.26A34.76,34.76,0,0,1,91.78,22a24.9,24.9,0,0,1,3-.1,23.4,23.4,0,0,1,3.11.28,18.47,18.47,0,0,1,6.28,2.18l.74.45.73.49c.24.17.47.35.7.53l.09.07,0,0,.08.06.15.13.3.25.15.13.17.16.34.32.17.16.16.16.31.32A17.83,17.83,0,0,1,109.43,29a16.81,16.81,0,0,1,1.92,3.13,17.76,17.76,0,0,1,1.22,3.53,18.44,18.44,0,0,1,.47,3.73,20.51,20.51,0,0,1-.27,3.75,21.85,21.85,0,0,1-.92,3.64,22.75,22.75,0,0,1-1.51,3.44,24.8,24.8,0,0,1-4.52,6,23.74,23.74,0,0,1-6.17,4.32,22.34,22.34,0,0,1-7.2,2.09,23.17,23.17,0,0,1-3.71.13c-.31,0-.61,0-.92-.06s-.61-.05-.91-.1l-.45-.06-.22,0h-.14l-.1,0-.41-.07-.2,0-.21,0-.9-.18-.85-.2c-.56-.14-1.13-.3-1.68-.46-1.1-.33-2.17-.73-3.21-1.15s-2-.88-3-1.37c-.49-.24-1-.49-1.44-.74s-.94-.52-1.39-.78c-.92-.53-1.8-1.07-2.67-1.62s-1.71-1.1-2.52-1.65c-1.63-1.11-3.19-2.21-4.68-3.27s-2.93-2.07-4.32-3a42.3,42.3,0,0,0-7.91-4.35,18.34,18.34,0,0,0-6.73-1.37,16.29,16.29,0,0,0-2.58.21c-.38.05-.72.14-1,.2l-.86.22-.67.2-.48.16-.4.14.37-.2.45-.25.64-.31.83-.36c.31-.11.65-.25,1-.37a14.8,14.8,0,0,1,2.65-.62,18.57,18.57,0,0,1,7.38.55c.7.18,1.41.4,2.12.66s1.44.54,2.18.85,1.47.66,2.22,1S59.2,45,60,45.46c1.52.83,3.07,1.74,4.65,2.68s3.19,1.93,4.86,2.9a65,65,0,0,0,10.64,5.24c.95.34,1.91.64,2.88.9.49.13,1,.25,1.47.36l.74.15.72.12.19,0,.2,0,.41.06h.17l.18,0,.37,0c.25,0,.49,0,.74.06s.49,0,.74,0a18.27,18.27,0,0,0,8.62-1.9,19,19,0,0,0,4.9-3.48,19.66,19.66,0,0,0,5.69-10.38,16.43,16.43,0,0,0,.27-2.89,13.82,13.82,0,0,0-.27-2.82A13.25,13.25,0,0,0,106,31.56a13.68,13.68,0,0,0-.85-1.08l-.23-.26-.11-.13-.11-.11-.22-.23-.11-.12-.14-.13-.29-.27-.14-.13s-.06-.06,0,0l0,0-.06-.05-.52-.43-.53-.41-.55-.38a15.21,15.21,0,0,0-4.89-2,22.15,22.15,0,0,0-5.23-.52c-.87,0-1.72.06-2.57.13s-1.67.2-2.49.32c-1.63.26-3.18.61-4.65,1q-1.1.29-2.14.61c-.69.21-1.36.43-2,.64-2.59.87-4.81,1.78-6.62,2.56S68.24,32,67.29,32.44L66.21,33l-.37.19"/><path class="cls-1" d="M93.63,17.83l.18.36c.06.12.11.24.16.36l.32.72.06.15c.4,0,.81,0,1.22,0a23.85,23.85,0,0,1,2.44.19c-.12-.5-.25-1-.4-1.51l-.3-.89c-.05-.15-.1-.3-.16-.45L97,16.33l-.37-.88-.43-.86-.22-.43c-.08-.14-.16-.28-.24-.42l-.5-.84c-.17-.28-.37-.54-.56-.82l-.28-.41-.14-.2-.15-.2-.62-.78-.32-.39-.34-.37L92.11,9c-.23-.25-.48-.47-.72-.7s-.49-.47-.74-.69l-.77-.65-.39-.32-.19-.16-.21-.15-.84-.61c-.58-.44-1.09-.75-1.63-1.1l-.4-.26-.1-.06,0,0-.08,0,0,0L85.74,4l-.89-.5A28.86,28.86,0,0,0,77.26.72L76.77.61,76.28.53l-1-.17c-.33-.06-.65-.09-1-.12l-1-.1c-.32,0-.65,0-1-.07l-1,0c-.32,0-.64,0-1,0h-.94a37.48,37.48,0,0,0-7.09.91,44.11,44.11,0,0,0-6.05,1.83,47.54,47.54,0,0,0-4.83,2.16c-1.4.72-2.57,1.42-3.52,2s-1.67,1.12-2.15,1.48-.72.57-.72.57L46,8.64c.55-.22,1.37-.55,2.4-.93s2.3-.82,3.76-1.27,3.12-.91,4.93-1.33a55.33,55.33,0,0,1,5.88-1,42.29,42.29,0,0,1,6.54-.29l1.69.11.85.09c.28,0,.57,0,.85.1a32.74,32.74,0,0,1,3.4.66,27.89,27.89,0,0,1,6.5,2.54l.77.42.19.11h0l.1.06.4.26c.53.34,1.1.68,1.53,1l.69.49.17.12.17.14.34.27.68.54.65.57c.21.19.44.38.64.58l.6.61.3.3.28.31.56.63.14.16.13.17.25.33c.17.22.35.43.5.66l.46.68.23.34.21.35.41.69.36.71"/><path class="cls-1" d="M10.83,49a5.13,5.13,0,0,0,3,1.08,2.54,2.54,0,0,0,2.77-2.56c0-1.48-.43-2.48-4-4.75-2.27-1.45-5.38-3.15-5.38-7.56s3.37-6.9,7.35-6.9a39.55,39.55,0,0,1,6.08.7,43.37,43.37,0,0,0-.57,5.78,2.27,2.27,0,0,1-1.64,0c-.37-2.23-.9-3.23-1.57-3.86a3.36,3.36,0,0,0-2.47-.85,2.75,2.75,0,0,0-2.71,2.93c0,1.56.77,2.41,2.17,3.34l3.91,2.45c2.51,1.63,3.61,3.19,3.61,6,0,3.86-2.87,7.27-8.32,7.27a12.14,12.14,0,0,1-5.54-1.3,24.67,24.67,0,0,1-1.3-6.34,2.49,2.49,0,0,1,1.64-.59A11.5,11.5,0,0,0,10.83,49"/><path class="cls-1" d="M23.25,28.89c1.2,0,2.91.11,4.71.11,2.27,0,4.91-.07,5.54-.11a3,3,0,0,1,0,1.78,7.19,7.19,0,0,0-.94.22c-.57.15-.37.67-.17,1.19.5,1.33,2.64,6.12,3.17,7.08.07.07.2,0,.27,0a49.2,49.2,0,0,0,3.17-7c0-.52.07-.89-.73-1.08-.6-.15-1.2-.26-1.94-.37a4.22,4.22,0,0,1,.17-1.78c1.27,0,2.34.11,4.51.11s3-.11,4.27-.11a3.22,3.22,0,0,1,0,1.78c-.73.19-1.47.26-1.8.41-1,.41-1.4.7-2.44,2.45-1.3,2.26-3.27,6.19-4,7.82a3.43,3.43,0,0,0-.4,1.82c0,1.78,0,2.15,0,4,0,1.11.1,2,1.1,2.22.57.15,1.3.26,2.1.45a3.47,3.47,0,0,1-.17,1.74c-1,0-3.94-.15-5.94-.15-2.67,0-3.54.15-5.41.15a3.09,3.09,0,0,1,0-1.74,18.79,18.79,0,0,0,2.3-.45c.84-.26,1-1,1-2,.07-1.74,0-2.26,0-3.89a6.18,6.18,0,0,0-.5-2c-.6-1.52-2.54-5.49-3.74-7.9C26.56,31.78,26,31.27,25.16,31a9.71,9.71,0,0,0-2-.37,3.34,3.34,0,0,1,.1-1.74"/><path class="cls-1" d="M63.2,51.58c-1.4,0-3.47-.11-6-.11-2.91,0-5,.11-6.18.11-.27-.26.16-1.56.4-1.78a12.76,12.76,0,0,0,1.87-.41c1-.26,1.24-.67,1.34-2.08.17-3.89.13-9.53.13-15.46,0-.07-.1-.33-.2-.33a25.82,25.82,0,0,0-3,0c-.53,0-1,.22-1.57,1.45a29.58,29.58,0,0,0-1.14,3.15c-.17.19-1.64-.15-1.77-.52.27-1.56.67-4.75.8-6.75,0-.07.3-.33.4-.3a9.64,9.64,0,0,0,3.21.48H63.17a14.63,14.63,0,0,0,4.21-.41c.13,0,.23.3.23.37a47.48,47.48,0,0,0-.87,6.86,2.93,2.93,0,0,1-1.77.11,19.6,19.6,0,0,0-.63-3.37c-.23-.85-.6-1.08-1.17-1.15a23.9,23.9,0,0,0-3.24,0,.44.44,0,0,0-.17.33c0,5.38-.1,13.87,0,15.91,0,.37,0,1.26.77,1.63a16.38,16.38,0,0,0,2.74.56,2.74,2.74,0,0,1-.1,1.78"/><path class="cls-1" d="M158,39.24a7.53,7.53,0,0,0-2.88-2.8.25.25,0,0,0-.19,0c-.45.17-1,.76-1.56,1.83-.3.44-.49.7-.6.84a4.56,4.56,0,0,1,0-.48V32.85a2.19,2.19,0,0,1,.46-1.29.93.93,0,0,0,.37-.81c0-.37-.37-.72-1-1l-1.46-1a1.93,1.93,0,0,0-2.34.29l0,.05c-.45.69-.91.63-1.22.51H133.3a2.33,2.33,0,0,1-1-.11,23,23,0,0,0-2.67-1.2,1.13,1.13,0,0,0-1.06,0,1.19,1.19,0,0,0-.4,1v9.34c0,.44-.19.61-.63.61l-2.38-.18a1.2,1.2,0,0,0-1,.29.87.87,0,0,0-.17.77c.07.37.35.78,1.18.78a3.25,3.25,0,0,0,.48,0l1.15-.18h29.93c1,0,1.27-.07,1.39-.14l.07-.06a1,1,0,0,0-.17-1.3m-9.59-7.5v7c0,.44-.19.61-.65.61h-1c-.44,0-.61-.19-.61-.65v-7c0-.44.19-.61.65-.61h1c.44,0,.61.19.61.65m-6.63,0v7c0,.44-.19.61-.65.61H140c-.44,0-.61-.19-.61-.65v-7c0-.44.19-.61.65-.61h1.15c.44,0,.61.19.61.65m-6.78,0v7c0,.44-.19.61-.65.61H133.2c-.44,0-.61-.19-.61-.65V31.84a3.34,3.34,0,0,1,.06-.73,16.19,16.19,0,0,1,1.74,0c.45,0,.62.19.62.65"/><path class="cls-1" d="M128.89,25.14a23,23,0,0,0,.95-5.46,1,1,0,0,1,.94-1h3.86c.44,0,.61.18.61.61a10.69,10.69,0,0,1-.14,1.72,3.39,3.39,0,0,1-1,2.6,2.52,2.52,0,0,1-2.1.31,1.46,1.46,0,0,0-1.27,0,.81.81,0,0,0-.32.66.25.25,0,0,0,.07.19,4.9,4.9,0,0,0,1.24.74A2.84,2.84,0,0,1,133,27.44a.73.73,0,0,0,.27.5,1.72,1.72,0,0,0,1.26.19A5.16,5.16,0,0,0,138,26a12.69,12.69,0,0,0,1.54-5.6,3.14,3.14,0,0,1,.32-1.23.93.93,0,0,0,.51-.79.25.25,0,0,0,0-.09A4.7,4.7,0,0,0,138,16.32a2.06,2.06,0,0,0-2.37.27,1.8,1.8,0,0,1-1.37.61h-3.53c-.63,0-.72-.28-.72-.57l0-2.44c0-.75.39-.85.69-.85h9.56a.72.72,0,0,1,.8.65,21.38,21.38,0,0,0,2.75,7.89,1.21,1.21,0,0,1-.25,1.76,24.72,24.72,0,0,1-6.07,4c-1.11.52-1.23.7-1.26.86a.25.25,0,0,0,0,.2c.12.17.39.24,1.43.13a21.43,21.43,0,0,0,7.82-3.07c.89-.58,1.36-.29,1.64,0a15.29,15.29,0,0,0,6.33,3.51,3.45,3.45,0,0,0,3-.39l.06-.05c.81-1,.62-2.16-.53-3.33a2.56,2.56,0,0,1-.28-1.93,9.67,9.67,0,0,1,.18-1.41,10,10,0,0,0,.15-1.7.25.25,0,0,0-.1-.2.81.81,0,0,0-.77-.18,1,1,0,0,0-.52.77,26,26,0,0,1-1.16,2.61c-.56.57-1.07.79-1.48.64a13.32,13.32,0,0,1-1.54-.91,1.4,1.4,0,0,1-.62-.84.65.65,0,0,1,.19-.49c.92-1.09,1.75-2.15,2.47-3.16s1-1.1,1.17-1.13c.42-.15.65-.31.73-.5a.25.25,0,0,0,0-.11c0-.63-.7-1.17-2.1-1.7a12.29,12.29,0,0,0-1.48-.55,1.45,1.45,0,0,0-1.89,1,18.64,18.64,0,0,1-1.45,3.2c-.34.54-.52.57-.55.57h0c-.06,0-.13-.08-.2-.19a16.66,16.66,0,0,1-1.7-5,1,1,0,0,1,.06-.74s.1-.12.35-.12h9.74c1.07,0,1.38-.13,1.51-.33l0-.07c.06-.22,0-.57-.74-1.53a10.08,10.08,0,0,0-2.21-1.93,1.92,1.92,0,0,0-2.35.45,7.89,7.89,0,0,0-1.06,1.47,1,1,0,0,1-1.23.48h-3.83c-.29,0-.6-.08-.65-.72a9.27,9.27,0,0,1-.07-1.59,1.47,1.47,0,0,1,.47-1.19c.41-.41.58-.68.58-.9a.25.25,0,0,0,0-.08c-.07-.2-.31-.41-1.32-.85A14.66,14.66,0,0,0,141.79,6a1.23,1.23,0,0,0-1,.28,1.33,1.33,0,0,0-.36,1h0c0,1.24.08,2.51.18,3.76a.93.93,0,0,1-.14.68.52.52,0,0,1-.4.13h-9.3a3.12,3.12,0,0,1-1.3-.23c-.81-.36-1.64-.69-2.48-1a1.15,1.15,0,0,0-1,.09,1.25,1.25,0,0,0-.39,1.05c0,4.31-.13,8.42-.47,12.24a17.68,17.68,0,0,1-1.21,5.7c-.32.89-.42,1.37-.07,1.51l.09,0,.11,0a9.5,9.5,0,0,0,4.89-6.1"/><path class="cls-1" d="M173.32,21.31c0,.45.45.68,1.33.68h6c.89,0,1.33-.26,1.33-.76,0-.68-1-.68-1.37-.68h-6c-1.07,0-1.3.41-1.3.76"/><path class="cls-1" d="M198.73,27.33a1,1,0,0,0-.71-.14l.12-.12a.25.25,0,0,0,0-.3A9.7,9.7,0,0,0,193.9,23a.24.24,0,0,0-.25,0,11.69,11.69,0,0,0-2.22,2.54v0a.88.88,0,0,1-1.18.5H175.9a10.42,10.42,0,0,0-1.47-.18,1.34,1.34,0,0,0-1.15.29.91.91,0,0,0-.15.85c.21.55.78.79,1.69.7l1.11-.21h20.44a2.76,2.76,0,0,0,1.12,0,3.36,3.36,0,0,0-.75,1l-.55.75c-.73,1.49-1.49,1.22-1.74,1.14h-23a6.89,6.89,0,0,0-1.39-.15h0a1.37,1.37,0,0,0-1.21.3.88.88,0,0,0-.13.83c.15.4.56.85,1.68.67l1.12-.18h8.87a.49.49,0,0,1,.38.11.54.54,0,0,1,0,.43,12.94,12.94,0,0,1-1.45,3.08,2,2,0,0,1-1.63,1.08c-1.75,0-3.65,0-5.64-.18a.22.22,0,0,0-.2.07c-.14.14-.25.41-.11,1.48a17.31,17.31,0,0,0,.5,2.16,1.42,1.42,0,0,0,1,1.29.76.76,0,0,0,.81-.56,2.74,2.74,0,0,1,1.44-.41c6.51-.81,12.68-1.82,18.34-3A1.07,1.07,0,0,1,195,38l.78,2.14a2.83,2.83,0,0,0,1.79,1.5,1.8,1.8,0,0,0,.34,0,2.84,2.84,0,0,0,1.71-.71,3.08,3.08,0,0,0,.55-2.86A5.8,5.8,0,0,0,198,35.1a10.69,10.69,0,0,0-4.42-1.92,4,4,0,0,0-2.16-.14.26.26,0,0,0-.15.13.66.66,0,0,0,0,.56.92.92,0,0,0,.61.46,3.56,3.56,0,0,1,1.11.84c.46.55.41.71.41.71s0,.05-.24.07c-3.71.36-7.61.58-11.59.65h-.06a3.55,3.55,0,0,1,.58-.52,19.94,19.94,0,0,0,3.11-3.14,2,2,0,0,1,1.49-1h14.5c.91,0,1.34-.13,1.47-.5,0-.16,0-.41-.86-1.52a15.67,15.67,0,0,0-3-2.46"/><path class="cls-1" d="M202,13.21c-.72-.48-1.46-.93-2.14-1.32a2.22,2.22,0,0,0-1.68-.63,2.3,2.3,0,0,0-1.52,1,2.31,2.31,0,0,1-1.41.47h-6.92c-.44,0-.61-.19-.61-.65V10.78c0-.44.19-.61.65-.61h10.09c.91.17,1.51,0,1.78-.53a.25.25,0,0,0,0-.22,11.06,11.06,0,0,0-3.11-3.17,1.72,1.72,0,0,0-1.31-.73,1.23,1.23,0,0,0-.92.56q-.91,1.09-1.68,2.2c-.13.25-.4.57-1.29.41H174.5l-1.37-.14a1.35,1.35,0,0,0-1.18.3.88.88,0,0,0-.13.83c.15.4.56.84,1.68.67l1.12-.18h7.9c.44,0,.61.19.61.65v1.33c0,.44-.19.61-.65.61h-8.09l-.4,0c-.45,0-1-.13-1.11-.47a2,2,0,0,0-.39-.9.26.26,0,0,0-.13-.07c-.29-.07-.51.24-.9,1.28a5.55,5.55,0,0,1-2.77,3l-.06,0a2.62,2.62,0,0,0-.79,2.75,1.83,1.83,0,0,0,.92,1.19,2.74,2.74,0,0,0,3.31-.61l.05-.06a7.86,7.86,0,0,0,1-3.95c0-.3.08-.61.72-.69l.58-.07h8c.44,0,.61.19.61.65v6a2,2,0,0,0,1.09,2.45,4.82,4.82,0,0,0,1.24.18,2.19,2.19,0,0,0,2.2-1.49.25.25,0,0,0,0-.09V14.82c0-.44.19-.61.65-.61h7.75a.59.59,0,0,1,.44.13.58.58,0,0,1,.1.43l-.24,1.37c-.27.81-.69.91-1,.91h-5.3c-.88,0-1.33.25-1.33.76s.46.72,1.37.72h5.16a3.28,3.28,0,0,0,1.67-.32A37,37,0,0,0,200.6,16c.84-.69,1.17-.75,1.29-.74a1,1,0,0,0,1.07-.74c0-.47-.31-.89-1-1.27"/><path class="cls-1" d="M180.54,18.1c.89,0,1.33-.26,1.33-.76,0-.69-1-.69-1.37-.69h-5.44c-1.07,0-1.3.41-1.3.76,0,.68,1,.68,1.37.68Z"/><path class="cls-1" d="M196,22.29c.88,0,1.33-.25,1.33-.76,0-.68-1-.68-1.37-.68h-6c-1.07,0-1.3.41-1.3.76,0,.68,1,.68,1.37.68Z"/><path class="cls-1" d="M247.71,37.07a.25.25,0,0,0-.05-.12c-.1-.12-.34-.29-1.39-.69A16.58,16.58,0,0,1,242,33.5c-.64-.64-.85-1.19-.63-1.67a42.15,42.15,0,0,0,3.16-13.89c.08-.76.43-.85.72-.85h.54c1.13,0,1.43-.18,1.56-.34a.25.25,0,0,0,0-.26,8.61,8.61,0,0,0-2.87-3.22,1.62,1.62,0,0,0-1.36-.61,1.57,1.57,0,0,0-1.07,1l-1,1.19a1.71,1.71,0,0,1-1.35.77h-2.24c-.18,0-.31,0-.35-.09s0-.23,0-.43A53.18,53.18,0,0,0,239.13,9c.67-.37,1-.72,1-1.1s-.2-.59-.62-.84l-.06,0a11.8,11.8,0,0,0-4.32-.47.25.25,0,0,0-.22.23c-.12,1.64-.29,3.3-.5,4.92a2,2,0,0,1-.12.48l-.11-.15c-.69-1.09-1.26-1.57-1.82-1.54a.91.91,0,0,0-.57.25.6.6,0,0,0,0-.37c0-.11-.06-.23-1.22-1.16a10,10,0,0,0-1.87-1,1.93,1.93,0,0,0-2,.34,1.69,1.69,0,0,1-1.42.59c-.79,0-.79-.34-.79-.51s0-.6.22-.71c.63-.3.9-.64.76-1.07a1.49,1.49,0,0,0-1.35-.78,12,12,0,0,0-2.53-.37,1.2,1.2,0,0,0-1,.28,1.34,1.34,0,0,0-.36,1V8.55c0,.3-.11.61-.9.61A2.8,2.8,0,0,1,218,9a13.54,13.54,0,0,0-2.51-1,1.19,1.19,0,0,0-1.06.12,1.19,1.19,0,0,0-.38,1v3a.62.62,0,0,1-.14.46.68.68,0,0,1-.5.12,1.49,1.49,0,0,1-.53,0,1.16,1.16,0,0,0-1,.29.82.82,0,0,0-.13.75c.13.44.51.93,1.59.76a.86.86,0,0,1,.61.15.56.56,0,0,1,.14.42v2.68a1.68,1.68,0,0,0,.19,1.51,1.1,1.1,0,0,0,.21.2l-.17.1a1.19,1.19,0,0,0-.38,1v5.6a1.8,1.8,0,0,0,.22,1.66,1.88,1.88,0,0,0,1.69.42c1.31-.05,2.05-.55,2.22-1.47,0-.08.07-.34.73-.34H226c.54,0,.61.23.61.48a1.5,1.5,0,0,0,.44,1.14,1.32,1.32,0,0,0,1,.26c.17,0,.24.08.25.1s0,.14-.13.34l0,.06a.86.86,0,0,1-1.24.66H222.9a1.26,1.26,0,0,1-.36,0l0,0a1.18,1.18,0,0,1,.59-.39c.46-.2.7-.44.74-.72a.76.76,0,0,0-.32-.68,4,4,0,0,0-1.83-.63l-1.27-.29c-.8-.05-1.44.45-1.84,1.49l-.13.34c-.34.64-.74.95-1.23.95a20,20,0,0,1-4.23-.18c-1.06-.08-1.3,0-1.4.21a.25.25,0,0,0,0,.17l.19.85c.16.52.71.71,1.66.57A16.64,16.64,0,0,1,217,30.8c.17,0,.22,0,.23,0s.06.12-.2.56a27.56,27.56,0,0,1-2.53,4.21,1.72,1.72,0,0,0-.54,1.45,1.43,1.43,0,0,0,.89.93,2.68,2.68,0,0,0,3.51-.93c.52-.84,1-.8,1.25-.69l.48.17c.24.11.37.23.39.34s0,.26-.46.6a23,23,0,0,1-7.13,3.21.26.26,0,0,0-.1.05.34.34,0,0,0-.12.37c.08.22.32.34,1.45.4a19.72,19.72,0,0,0,8.66-2.7,1.51,1.51,0,0,1,1.68-.11A17.15,17.15,0,0,1,226.19,40c1,.95,1.85,1.32,2.59,1.13s1.14-.79,1.48-1.9c.13-1.54-.81-2.67-2.81-3.36-.28-.09-.46-.21-.5-.33s0-.31.22-.53a11.79,11.79,0,0,0,1.73-3.24c.23-.62.56-.92,1-.92h1.91c1,0,1.27-.07,1.39-.14a.25.25,0,0,0,.09-.09,1,1,0,0,0-.16-1.28,15.5,15.5,0,0,0-1.66-2,1.88,1.88,0,0,1-.64-1.48c0-1,0-2,.07-2.88a1.11,1.11,0,0,1,.28-.19l.24-.11c-.27.71-.23.89-.15,1a.25.25,0,0,0,.08.09c.26.16.55,0,1.7-1.36l.58-.73a2.44,2.44,0,0,1,.38-.42.49.49,0,0,1,.07.19,59.74,59.74,0,0,0,2.28,10.18,2,2,0,0,1-.05,1.74,20,20,0,0,1-6,6.71c-.22.11-.88.44-.82,1a.25.25,0,0,0,0,.1c.15.25.53.26,1.46,0a13.71,13.71,0,0,0,6.62-4.08c.45-.48.7-.53.81-.52s.16,0,.3.25a14.81,14.81,0,0,0,4.33,4.62.26.26,0,0,0,.15,0h0c.18,0,.35-.16,1.06-1.51a5.84,5.84,0,0,1,2.08-2c1-.37,1.29-.62,1.24-.93m-7.53-19.31h0a47.42,47.42,0,0,1-1.68,10.5.88.88,0,0,1-.19.38s-.12,0-.32-.37a31.24,31.24,0,0,1-2.61-8.19l0-.07c-.24-.5-.06-1.16.57-2,.36-.64.77-1,1.26-1h2.49a.52.52,0,0,1,.39.13.76.76,0,0,1,.11.54m-15.69,4.85c0-.44.19-.61.65-.61h.9c.3,0,.61.09.61.76v1.48c0,.44-.19.61-.65.61h-.9c-.44,0-.61-.19-.61-.65Zm2-10.46c0,.44-.19.61-.65.61h-.76c-.44,0-.61-.19-.61-.65v-.9c0-.3.11-.61.89-.61l1.09,0a5.05,5.05,0,0,1,0,.76Zm-2,2.67c0-.44.19-.61.65-.61h.79c.3,0,.58.08.58.68v1c0,.44-.19.61-.65.61h-.76c-.44,0-.61-.19-.61-.65Zm6.91-3.48-.28.35a3.66,3.66,0,0,1-.44.45.56.56,0,0,1,.34-.74,2.4,2.4,0,0,0,.51-.31,2.35,2.35,0,0,0-.13.25m-.63,9.29a9.84,9.84,0,0,0-1.86-1,2.58,2.58,0,0,0-.81-.14,1.71,1.71,0,0,0-1.21.49,2.2,2.2,0,0,1-1.59.58c-.7,0-.79-.33-.79-.65V18.57c0-.44.19-.61.65-.61h.72c.6,0,.69.12.69.12h0c.22,1.07.83,1.27,1.26,1.25a2.61,2.61,0,0,0,2.81-1.13.27.27,0,0,0,0-.12l0-3.25c0-.44.19-.61.65-.61h2a.43.43,0,0,1,.51.57,29.89,29.89,0,0,1-2,6.82,8,8,0,0,0-1.14-1m-10.49-4.77c0,.44-.19.61-.65.61h-.72c-.44,0-.61-.19-.61-.65v-1c0-.44.19-.61.65-.61h.76c.3,0,.58.08.58.68Zm0-3.71c0,.44-.19.61-.65.61h-.72c-.44,0-.61-.19-.61-.65v-.76a.28.28,0,0,0,0-.06c-.06-.21-.09-.49,0-.63s.19-.14.51-.14a3.48,3.48,0,0,1,.65.07c.7,0,.79.35.79.69Zm-2.06,6.08c.05-.23.42-.27.73-.27h.72c.44,0,.61.19.61.65v1.33c0,.18,0,.61-1,.61a2.84,2.84,0,0,1-1.4-.19,18.42,18.42,0,0,0-1.7-.74c1.13-.14,1.81-.6,2-1.39m-.06,4.52a2.52,2.52,0,0,1,.06-.71,9,9,0,0,1,1.2,0c.76,0,.87.35.87.69v1.55c0,.44-.19.61-.65.61h-.87c-.44,0-.61-.19-.61-.65Zm6.39,8.65a13.8,13.8,0,0,1-1.27,2.67,1.14,1.14,0,0,1-1.24.5l-1.36-.14c-.16,0-.37-.07-.43-.2s0-.38.19-.7l.94-1.8c.34-.64.74-.95,1.22-.95h1.62a.45.45,0,0,1,.33.1.66.66,0,0,1,0,.51"/><path class="cls-1" d="M272.21,34a2.29,2.29,0,0,0,1.31,1.49,1.48,1.48,0,0,0,.45.07,2.6,2.6,0,0,0,1.4-.5l.05,0a5.12,5.12,0,0,0,1.21-4.14c-.56-3.26-2.24-7.15-5-11.57-.85-1.25-1.07-1.33-1.27-1.31a.32.32,0,0,0-.26.21.25.25,0,0,0,0,.13,7.29,7.29,0,0,0,.37,1.45,32,32,0,0,1,1.72,12.65,3.17,3.17,0,0,0,.05,1.57"/><path class="cls-1" d="M267.09,14.64a.26.26,0,0,0,0,.16l.18.85c.13.45.53.68,1.2.68l.46,0,1.15-.21h18.35c1.09,0,1.36-.15,1.49-.31a.24.24,0,0,0,0-.08c.06-.18,0-.43-.81-1.55a14.5,14.5,0,0,0-2-1.81c-.64-.64-1.17-.93-1.66-.88a1.09,1.09,0,0,0-.8.53c-.41.49-.79,1-1.13,1.46a6,6,0,0,1-.94,1.14,6.21,6.21,0,0,1-1.2.05c-.79,0-.9-.33-.9-.65V9.84a4.76,4.76,0,0,1,0-.81,1.4,1.4,0,0,0,.9-.67.92.92,0,0,0,0-.79.25.25,0,0,0-.09-.11,8.69,8.69,0,0,0-4.06-.91,1.25,1.25,0,0,0-1,.32A1.37,1.37,0,0,0,276,7.94V14c0,.44-.19.61-.65.61H270a12.47,12.47,0,0,0-1.5-.18c-1.07-.11-1.31,0-1.4.18"/><path class="cls-1" d="M266.09,18.31c-.09-.36-.47-.62-1.14-.79a.68.68,0,0,1-.33-1q1.4-2.9,2.69-5.79c.17-.87.58-1.34,1.26-1.42l.06,0a1.45,1.45,0,0,0,.61-.4l0-.08a1,1,0,0,0,0-.78,1.64,1.64,0,0,0-1.1-.72,11.55,11.55,0,0,0-3.26-1.11,1.3,1.3,0,0,0-1.62,1.15h0A36.37,36.37,0,0,1,257,23.86c-.85,1.11-.86,1.33-.79,1.51a.25.25,0,0,0,.05.08c.19.19.49.16,1.6-.52a24.2,24.2,0,0,0,2.4-2.18,1.81,1.81,0,0,1,.46-.37.91.91,0,0,1,0,.16V38.87a5.4,5.4,0,0,0,.1,1.44,1.68,1.68,0,0,0,1.67,1.15,4,4,0,0,0,.63.06,2,2,0,0,0,2.1-1.57.27.27,0,0,0,0-.07V20.48a1.7,1.7,0,0,1,.5-1.26,1,1,0,0,0,.41-.91"/><path class="cls-1" d="M291.14,38a12.91,12.91,0,0,0-4.27-3.71l-.08,0c-.21,0-.51.05-1.57,1.32l-.55.74a2.88,2.88,0,0,1-.89,1.07,26.61,26.61,0,0,1-2.71.07c-.23,0-.28-.05-.28-.05s0-.1.16-.42a25.46,25.46,0,0,0,2.19-4.19,65.18,65.18,0,0,0,3.51-11.33c.21-.94.42-1.07.46-1.08.46-.19.7-.42.74-.7s-.13-.56-.56-.88a17.19,17.19,0,0,0-3.79-.85,1.28,1.28,0,0,0-1,.27,1.33,1.33,0,0,0-.37,1,89.15,89.15,0,0,1-2.51,17.32c-.24.81-.66.9-.95.9h-9.76a10,10,0,0,0-1.47-.18,1.34,1.34,0,0,0-1.18.3.88.88,0,0,0-.13.83c.16.48.6.73,1.33.73l.36,0,1.11-.21h20.51c1.27.25,1.66-.24,1.77-.69a.25.25,0,0,0,0-.21"/><path class="cls-1" d="M318.59,11.65a5.15,5.15,0,0,1,1.55,2.75,3.29,3.29,0,0,0,1.35,2.46,1.92,1.92,0,0,0,1,.24,3.41,3.41,0,0,0,1.25-.27l.06,0a2.67,2.67,0,0,0,1.18-2.31c-.08-1.64-1.17-2.91-3.25-3.79A8.6,8.6,0,0,0,319,10c-.94,0-1.35.08-1.44.4a.25.25,0,0,0,0,.11c0,.16.13.38,1.08,1.11"/><path class="cls-1" d="M320.9,20a13,13,0,0,0-2.51-.85c-.41-.08-1.36-.26-1.48.3a.25.25,0,0,0,0,.05c0,.16.09.37,1.13,1.37a6,6,0,0,1,1.11,2.5,3.73,3.73,0,0,0,1.19,2.91,2.13,2.13,0,0,0,1.27.38,3.74,3.74,0,0,0,1-.14l.06,0a2.26,2.26,0,0,0,1.2-1.74c.49-1.8-.49-3.4-2.91-4.77"/><path class="cls-1" d="M314.19,29l.06,0a2.38,2.38,0,0,0,1.95.35,2.34,2.34,0,0,0,1.3-1.47c.46-1.54-.19-3.07-2-4.57a12.38,12.38,0,0,0-2.59-1.51c-.62-.23-.92-.56-.92-1V19.44c0-.44.19-.61.65-.61h3.53c1.1,0,1.36-.16,1.48-.34s.07-.51-.53-1.62a9.66,9.66,0,0,0-2.35-2.34l-.09,0a.91.91,0,0,0-1,.56,17.37,17.37,0,0,0-1,1.46,1.71,1.71,0,0,1-.63.85,3.9,3.9,0,0,1,0-.67V11.58a.93.93,0,0,1,.69-.95A11.16,11.16,0,0,1,316,9.91a.92.92,0,0,0,1.11-.63.27.27,0,0,0,0-.09,1.55,1.55,0,0,0-.94-1.33,16.78,16.78,0,0,0-2.89-1.63c-.35-.28-.93-.41-1.75.5A32.33,32.33,0,0,1,303,11.11c-.94.21-1.47.48-1.68.84a.25.25,0,0,0,0,.17.68.68,0,0,0,.33.46.36.36,0,0,0,.14,0,27.57,27.57,0,0,0,4.9-.62.87.87,0,0,1,.67.07.46.46,0,0,1,.12.37v4.33c0,.44-.19.61-.66.61a18.5,18.5,0,0,1-4.09-.18,1.36,1.36,0,0,0-1.17.32.78.78,0,0,0-.13.71c.09.39.43.84,1.52.77a18.85,18.85,0,0,1,3.7-.18.58.58,0,0,1,.42.12.6.6,0,0,1,.06.44,48.59,48.59,0,0,1-5,13.79c-.48,1.09-.46,1.43-.23,1.65s.59.08,1.82-.78a12.47,12.47,0,0,0,3.76-5.88V39a2.51,2.51,0,0,0,.59,2.11,1.91,1.91,0,0,0,1.33.45,3.62,3.62,0,0,0,.6-.05A1.88,1.88,0,0,0,312,40V24.05s0-.07,0-.09a2.23,2.23,0,0,1,.35.35,8.27,8.27,0,0,1,.91,2.78,2.94,2.94,0,0,0,.9,1.93"/><path class="cls-1" d="M334.46,24.62a14,14,0,0,0-2.15-.86,1.35,1.35,0,0,0-1.13-.19,1.56,1.56,0,0,0-.87,1,2.11,2.11,0,0,1-.17.23,2.33,2.33,0,0,1,0-.31V10a3.1,3.1,0,0,1,.07-.84,1.84,1.84,0,0,0,1.14-.86.25.25,0,0,0,0-.08,1.22,1.22,0,0,0-.31-.95,2.12,2.12,0,0,0-1.59-.51h0a22,22,0,0,0-2.49-.36,1.18,1.18,0,0,0-.94.28,1.35,1.35,0,0,0-.33,1.06v19c0,.29-.08.65-.75.8-5.21,1.29-9,2.13-11.2,2.48-.54.1-.87.29-1,.57a.75.75,0,0,0,.14.73c.34.46,1,.52,1.88.16a44.09,44.09,0,0,1,4.73-1.22l5.4-1.23a.85.85,0,0,1,.66,0,.44.44,0,0,1,.12.36v9.79a2.34,2.34,0,0,0,.61,2.07,2,2,0,0,0,1.35.42,5.29,5.29,0,0,0,1.23-.17l.06,0A2.1,2.1,0,0,0,330.13,39V28.56c0-.29.1-.7,1-.95l3.56-.86c1,0,1.31-.47,1.36-.83a.23.23,0,0,0,0-.06c0-.2-.17-.48-1.54-1.24"/><path class="cls-1" d="M378.85,36.46A23.06,23.06,0,0,1,372,33.82c-.23-.13-.51-.33-.55-.57a.72.72,0,0,1,.25-.55,20.33,20.33,0,0,0,4.57-7.83,1.12,1.12,0,0,1,1-.83,1.07,1.07,0,0,0,.73-.73c.07-.36-.1-.75-.56-1.22a14.46,14.46,0,0,0-2.65-1.6,1.67,1.67,0,0,0-1.28-.33,1.94,1.94,0,0,0-1.18.91,2.43,2.43,0,0,1-1.68.6c-.73,0-.83-.33-.83-.65V15.54c0-.44.19-.61.65-.61h7.68q1.32.2,1.73-.48a.25.25,0,0,0,0-.23,8.29,8.29,0,0,0-2.9-3.11,1.33,1.33,0,0,0-2.43.41l-1,1.19a1.77,1.77,0,0,1-1.39.74H370.4c-.44,0-.61-.19-.61-.65V9.09a1,1,0,0,1,.43-1,1.27,1.27,0,0,0,.65-.81.62.62,0,0,0-.17-.5l-.06,0a9.39,9.39,0,0,0-4.12-.9,1.15,1.15,0,0,0-.86.29,1.55,1.55,0,0,0-.38,1.16v5.55c0,.44-.19.61-.65.61h-4.8a1.83,1.83,0,0,1-1.31-.51c-.59-.52-.84-.62-1-.64a.24.24,0,0,0-.15,0c-.13.07-.37.27-1.12,1.26-.64,1.23-1,1.36-1.23,1.32,0,0-.1-.1-.1-.66V9c0-.32,0-.72.3-.82.47-.26.72-.53.78-.83a.75.75,0,0,0-.2-.63l-.07-.05a10,10,0,0,0-4-.83,1.18,1.18,0,0,0-.92.31,1.57,1.57,0,0,0-.39,1.17v7c0,.44-.19.61-.66.61a14.27,14.27,0,0,1-2.86-.14,1.41,1.41,0,0,0-1.19.33.87.87,0,0,0-.15.79c.11.39.48.82,1.66.68a10.25,10.25,0,0,1,2.58-.17c.44,0,.61.19.61.65v5.23a.88.88,0,0,1-.69.91c-.93.29-1.83.53-2.68.72a1.71,1.71,0,0,0-1.13.67,1.39,1.39,0,0,0-.14,1.09A29.79,29.79,0,0,0,347,29a.26.26,0,0,0,0,.08c.51.54.9.75,1.24.64s.5-.7.53-.89a1.9,1.9,0,0,1,.94-1.19c.52-.35.68-.3.68-.3s0,.06,0,.23v8.08a5.77,5.77,0,0,1,0,.95,3.67,3.67,0,0,1-2.68.35c-.95-.06-1.42,0-1.58.36a.25.25,0,0,0,0,.11c0,.23.19.47,1.21,1A3.38,3.38,0,0,1,349,40c.27,1.22,1,1.5,1.64,1.5h.07a4.53,4.53,0,0,0,4.18-3.36.25.25,0,0,0,0-.07V24.67a1.81,1.81,0,0,1,.77-1.39q1.66-1.34,3.41-2.65c.88-.84,1.1-1.22.89-1.49a.25.25,0,0,0-.11-.08c-.16-.07-.4-.06-1.71.62a27.58,27.58,0,0,0-2.51,1.27c-.51.28-.66.21-.68.2s-.07-.1-.07-.27V17c0-.44.19-.61.65-.61h3.25c1,0,1.32-.12,1.46-.24l.05-.06a.9.9,0,0,0-.13-1.11,2,2,0,0,1,.42,0h4c.44,0,.61.19.61.65v5.48c0,.44-.19.61-.65.61h-3.74a8.54,8.54,0,0,0-1.51-.15h0a1.25,1.25,0,0,0-1.09.34.82.82,0,0,0-.09.76c.15.4.54.84,1.64.7a2.24,2.24,0,0,1,.66-.1c.78,0,.9.31.94.63a35.58,35.58,0,0,0,3.69,9.33.93.93,0,0,1-.11,1.43,29.52,29.52,0,0,1-9.27,5.51c-1.09.47-1.23.64-1.29.79a.25.25,0,0,0,.06.27c.14.14.41.25,1.48.18a27.24,27.24,0,0,0,10.92-4.44c.36-.25.95-.47,1.86.38a27,27,0,0,0,5.85,3.76c1.12.41,1.43.4,1.6.23a.24.24,0,0,0,.06-.1A5.36,5.36,0,0,1,379,38.1c1.19-.51,1.35-.71,1.4-.87a.24.24,0,0,0,0-.08c0-.29-.25-.47-1.61-.68m-7.11-12.64a18.7,18.7,0,0,1-3,6.57,1,1,0,0,1-.63.45.93.93,0,0,1-.68-.3A18.38,18.38,0,0,1,363,23.9c-.15-.44-.08-.6,0-.65s.2-.1.31-.1h8a.49.49,0,0,1,.39.12.71.71,0,0,1,.05.55"/><path class="cls-2" d="M126,61.4a2.9,2.9,0,0,0,1.7.61,1.44,1.44,0,0,0,1.57-1.45c0-.84-.25-1.41-2.25-2.69-1.29-.82-3-1.79-3-4.29s1.91-3.91,4.16-3.91a22.54,22.54,0,0,1,3.44.4,24.46,24.46,0,0,0-.32,3.28,1.29,1.29,0,0,1-.93,0,3.6,3.6,0,0,0-.89-2.19,1.91,1.91,0,0,0-1.4-.48,1.56,1.56,0,0,0-1.53,1.66,2.13,2.13,0,0,0,1.23,1.89L130,55.64A3.66,3.66,0,0,1,132,59c0,2.19-1.63,4.12-4.71,4.12a6.88,6.88,0,0,1-3.14-.74,14,14,0,0,1-.74-3.59,1.42,1.42,0,0,1,.93-.34A6.51,6.51,0,0,0,126,61.4"/><path class="cls-2" d="M134,50c.49,0,1.1.06,2.9.06,1.61,0,2.57-.06,3-.06a1.67,1.67,0,0,1,0,1,4.41,4.41,0,0,0-1,.21c-.38.17-.44.48-.44,1,0,.88,0,1.93,0,3.11a.39.39,0,0,0,.09.17,17.46,17.46,0,0,0,2.31,0,17.49,17.49,0,0,0,2,0c.06,0,.13-.08.13-.13,0-1,0-2.12,0-3.32,0-.27-.08-.65-.34-.76a3.8,3.8,0,0,0-1.23-.27,1.43,1.43,0,0,1,0-1c1,0,1.46.06,3,.06s2.21-.06,2.91-.06a1.33,1.33,0,0,1,0,1,3,3,0,0,0-1,.25c-.36.15-.42.42-.44,1.09,0,1.37,0,2.4,0,4.14,0,1.43,0,3.13,0,4.08,0,.38.08.8.42,1a5.85,5.85,0,0,0,1.32.32,2,2,0,0,1-.11,1c-.43,0-1.38-.06-3.07-.06s-2.61.06-3,.06a1.33,1.33,0,0,1,0-1,6,6,0,0,0,1.08-.23c.28-.11.42-.4.44-.86,0-1,0-2.12,0-3.49,0,0,0-.13-.09-.13-.36,0-1.31,0-2.16,0a11,11,0,0,0-2.29.06.33.33,0,0,0,0,.13c0,1.35,0,2.44,0,3.2,0,.5.06.88.49,1.05a8.19,8.19,0,0,0,1.19.29,1.52,1.52,0,0,1-.09,1c-.34,0-1.25-.06-3.27-.06-1.57,0-2.54.06-2.86.06a1.67,1.67,0,0,1,0-1,8.72,8.72,0,0,0,.95-.23c.51-.15.64-.5.68-1.24,0-.32,0-2.27,0-4.16,0-2.08,0-3.3,0-3.93s-.08-.93-.47-1.05a5.64,5.64,0,0,0-1.1-.23,1.83,1.83,0,0,1,0-1"/><path class="cls-2" d="M149.38,50c.93,0,2.12.06,3,.06h4.11a17.58,17.58,0,0,0,2.59-.15s.08,0,.09.11a30.52,30.52,0,0,0-.25,3.3,1.71,1.71,0,0,1-1,.08,6.25,6.25,0,0,0-.3-1.37.9.9,0,0,0-.83-.61c-.61,0-2.42,0-2.71,0-.09,0-.19.29-.19.4,0,1.32,0,2.25,0,3.68a.17.17,0,0,0,.15.17c.49,0,1.59,0,2.23,0,.34,0,.47-.17.57-.59.06-.21.11-.59.17-.88a2.06,2.06,0,0,1,1.12.08c0,.48-.11,1.53-.11,2.14s0,1.72,0,2.23a1.72,1.72,0,0,1-1.08,0l-.21-.92a.6.6,0,0,0-.57-.48c-.34,0-1.59,0-2.16,0-.06,0-.15.15-.15.19v3.17a.71.71,0,0,0,.42.69,12.9,12.9,0,0,0,2.63.19,1.35,1.35,0,0,0,1.36-.74,9.84,9.84,0,0,0,.95-1.79,2.08,2.08,0,0,1,1,.42,18.46,18.46,0,0,1-1,3.17c-.06.13-.15.36-1,.36-1.44,0-3.33-.08-5.77-.08-1,0-2.61.06-3.65.06a3,3,0,0,1,0-1,10.16,10.16,0,0,0,1.51-.29c.3-.08.55-.29.55-.93.06-1.24,0-2.08,0-4.73,0-1.47,0-3.07,0-3.85,0-.61-.25-.73-.55-.84a5.23,5.23,0,0,0-1.12-.21,1.81,1.81,0,0,1,.06-1"/><path class="cls-2" d="M161.57,50c.64,0,1.38.06,2.86.06.62,0,1.34,0,1.72,0a5.71,5.71,0,0,0,.76,1.26c1.59,2.19,4.09,5.7,5.26,7.15l.11,0c0-2.69,0-4.33-.11-5.95,0-.69-.23-1.07-.87-1.22-.44-.11-.79-.17-1.23-.23a2.27,2.27,0,0,1,0-1c.42,0,1.27.06,2.71.06s2.08-.06,2.54-.06a2.26,2.26,0,0,1,0,1,5.23,5.23,0,0,0-.76.19c-.51.17-.79.27-.89,1.32-.11,1.66-.17,4.69-.15,7.46,0,1,0,2.16,0,3a13.92,13.92,0,0,0-2.1,0c-1.44-2.06-4.88-7.12-6.57-9.44-.08-.08-.11,0-.11,0,0,2.31,0,5.7.06,6.6s.36,1.28.87,1.43c.32.08.66.15,1.19.25a1.69,1.69,0,0,1,0,1c-.87,0-1.76-.06-2.63-.06s-1.89.06-2.71.06a2.26,2.26,0,0,1,0-1,5.86,5.86,0,0,0,1.19-.32,1.29,1.29,0,0,0,.64-1.22c.11-1.16.17-5.4.17-7.63a1.33,1.33,0,0,0-.64-1.28,4.33,4.33,0,0,0-1.31-.36,2.81,2.81,0,0,1,0-1.05"/><path class="cls-2" d="M188.53,62.37a16.2,16.2,0,0,1-4.48.8c-4.39,0-7-2.27-7-6.79a6.2,6.2,0,0,1,3.48-5.91,8.63,8.63,0,0,1,3.92-.8,37.38,37.38,0,0,1,4.11.48,24.38,24.38,0,0,0-.32,4,1.31,1.31,0,0,1-1,.1c-.19-1.45-.44-2.23-.95-2.67a3.74,3.74,0,0,0-2.44-.82c-1.85,0-3.41,1.18-3.41,5.21,0,3.3,1.53,6,4,6a1.2,1.2,0,0,0,.78-.34,1.82,1.82,0,0,0,.15-.61,12.55,12.55,0,0,0,0-1.7c0-.53-.06-1-.61-1.22-.36-.13-.78-.13-1.46-.27a2.17,2.17,0,0,1,0-1.05c.51,0,1.93.06,3.46.06,1.38,0,2.16,0,2.61-.06a2.46,2.46,0,0,1,0,1.05,6.26,6.26,0,0,0-.72.17c-.3.1-.44.31-.44.82s0,2.25,0,2.35.13.27.45.57a1.59,1.59,0,0,1-.17.61"/><path class="cls-2" d="M194.47,50c.68,0,1.65.06,2.67.06,1.29,0,2.78,0,3.14-.06a1.66,1.66,0,0,1,0,1,3.9,3.9,0,0,0-.53.13c-.32.08-.21.38-.09.67.28.76,1.49,3.47,1.8,4,0,0,.11,0,.15,0a27.88,27.88,0,0,0,1.8-4c0-.29,0-.5-.42-.61s-.68-.15-1.1-.21a2.38,2.38,0,0,1,.09-1c.72,0,1.32.06,2.55.06S206.25,50,207,50a1.82,1.82,0,0,1,0,1c-.42.11-.83.15-1,.23-.57.23-.79.4-1.38,1.39-.74,1.28-1.85,3.51-2.27,4.43a2,2,0,0,0-.23,1c0,1,0,1.22,0,2.29,0,.63.06,1.14.62,1.26.32.08.74.15,1.19.25a2,2,0,0,1-.09,1c-.55,0-2.23-.08-3.37-.08-1.51,0-2,.08-3.07.08a1.76,1.76,0,0,1,0-1,10.69,10.69,0,0,0,1.31-.25c.47-.15.57-.55.57-1.14,0-1,0-1.28,0-2.21a3.51,3.51,0,0,0-.28-1.11c-.34-.86-1.44-3.11-2.12-4.48-.53-1.07-.87-1.37-1.32-1.51a5.55,5.55,0,0,0-1.14-.21,1.9,1.9,0,0,1,.06-1"/><path class="cls-2" d="M207.2,50c1,0,2.21.06,3.18.06s2.14-.06,3.16-.06a1.83,1.83,0,0,1,0,1c-.36.06-.78.19-1,.23-.51.13-.62.53-.64,1.2,0,1.53,0,2.44,0,3.57,0,.57,0,2,.11,2.84a2.61,2.61,0,0,0,3,2.48c1.21,0,2.69-.34,2.84-3.4.08-1.6.09-4.67,0-5.36s-.13-1.14-.78-1.28a9.21,9.21,0,0,0-1.36-.27,2.59,2.59,0,0,1,0-1c.89,0,1.78.06,2.67.06,1.76,0,2.16-.06,2.55-.06a1.53,1.53,0,0,1,0,1c-.3.08-.59.11-.91.21s-.62.46-.68,1.51c0,.67-.11,3.26-.17,4.69-.17,4.48-2.29,5.76-5.24,5.76-3.58,0-4.71-2-4.86-4.1-.11-1.58-.11-5.38-.13-6.75a1,1,0,0,0-.61-1.05,6.2,6.2,0,0,0-1.15-.27,2.27,2.27,0,0,1,0-1"/><path class="cls-2" d="M221.94,50c.64,0,1.38.06,2.86.06.62,0,1.34,0,1.72,0a5.74,5.74,0,0,0,.76,1.26c1.59,2.19,4.09,5.7,5.26,7.15l.11,0c0-2.69,0-4.33-.11-5.95,0-.69-.23-1.07-.87-1.22a12.49,12.49,0,0,0-1.23-.23,2.27,2.27,0,0,1,0-1c.42,0,1.27.06,2.71.06s2.08-.06,2.54-.06a2.29,2.29,0,0,1,0,1,5.25,5.25,0,0,0-.76.19c-.51.17-.79.27-.89,1.32-.11,1.66-.17,4.69-.15,7.46,0,1,0,2.16,0,3a13.92,13.92,0,0,0-2.1,0c-1.44-2.06-4.88-7.12-6.57-9.44-.08-.08-.11,0-.11,0,0,2.31,0,5.7.06,6.6s.36,1.28.87,1.43c.32.08.66.15,1.19.25a1.69,1.69,0,0,1,0,1c-.87,0-1.76-.06-2.63-.06s-1.89.06-2.71.06a2.28,2.28,0,0,1,0-1,5.85,5.85,0,0,0,1.19-.32,1.29,1.29,0,0,0,.64-1.22c.11-1.16.17-5.4.17-7.63a1.33,1.33,0,0,0-.64-1.28,4.33,4.33,0,0,0-1.31-.36,2.79,2.79,0,0,1,0-1.05"/><path class="cls-2" d="M250.24,62.85c-.79,0-2-.06-3.43-.06-1.65,0-2.84.06-3.5.06a1.25,1.25,0,0,1,0-1c.57-.08,1.06-.17,1.29-.23.57-.15.7-.38.76-1.18.09-2.21.08-5.4.08-8.76,0,0-.06-.19-.11-.19a14.89,14.89,0,0,0-1.68,0c-.3,0-.59.13-.89.82a16.48,16.48,0,0,0-.64,1.79c-.09.1-.93-.08-1-.29.15-.88.38-2.69.45-3.82,0,0,.17-.19.23-.17a5.45,5.45,0,0,0,1.82.27h6.62a8.31,8.31,0,0,0,2.38-.23c.07,0,.13.17.13.21a27,27,0,0,0-.49,3.89,1.67,1.67,0,0,1-1,.06,11.08,11.08,0,0,0-.36-1.91c-.13-.48-.34-.61-.66-.65a13.71,13.71,0,0,0-1.84,0,.25.25,0,0,0-.09.19c0,3-.06,7.86,0,9,0,.21,0,.71.44.92a9.28,9.28,0,0,0,1.55.32,1.56,1.56,0,0,1-.06,1"/><path class="cls-2" d="M254.42,50c.93,0,2.12.06,3,.06h4.11a17.57,17.57,0,0,0,2.59-.15s.08,0,.09.11a30.59,30.59,0,0,0-.25,3.3,1.71,1.71,0,0,1-1,.08,6.23,6.23,0,0,0-.3-1.37.9.9,0,0,0-.83-.61c-.61,0-2.42,0-2.71,0-.09,0-.19.29-.19.4,0,1.32,0,2.25,0,3.68a.17.17,0,0,0,.15.17c.49,0,1.59,0,2.23,0,.34,0,.47-.17.57-.59.06-.21.11-.59.17-.88a2.06,2.06,0,0,1,1.12.08c0,.48-.11,1.53-.11,2.14s0,1.72,0,2.23a1.72,1.72,0,0,1-1.08,0l-.21-.92a.6.6,0,0,0-.57-.48c-.34,0-1.59,0-2.16,0-.06,0-.15.15-.15.19v3.17a.71.71,0,0,0,.42.69,12.9,12.9,0,0,0,2.63.19,1.35,1.35,0,0,0,1.36-.74,9.87,9.87,0,0,0,.95-1.79,2.08,2.08,0,0,1,1,.42,18.45,18.45,0,0,1-1,3.17c-.06.13-.15.36-1,.36-1.44,0-3.33-.08-5.77-.08-1,0-2.61.06-3.65.06a3,3,0,0,1,0-1,10.19,10.19,0,0,0,1.51-.29c.3-.08.55-.29.55-.93.06-1.24,0-2.08,0-4.73,0-1.47,0-3.07,0-3.85,0-.61-.25-.73-.55-.84a5.24,5.24,0,0,0-1.12-.21,1.82,1.82,0,0,1,.06-1"/><path class="cls-2" d="M275.63,51.31a3.83,3.83,0,0,0-2.08-.53c-2,0-3.27,1.7-3.27,5.32,0,2.35,1,5.61,4.16,5.61a2.2,2.2,0,0,0,1.59-.57A9.69,9.69,0,0,0,277.62,59a1.62,1.62,0,0,1,.78.63,7.6,7.6,0,0,1-1.7,3,7,7,0,0,1-2.8.55c-4.3,0-6.93-2.29-6.93-6.87a6.29,6.29,0,0,1,3.2-5.76,7.93,7.93,0,0,1,3.8-.86c1.82,0,3.27.36,4,.38-.09.74-.25,2.52-.25,3.66-.09.17-.91.25-.95.11-.27-1.35-.38-2-1.14-2.5"/><path class="cls-2" d="M280.26,50c.49,0,1.1.06,2.9.06,1.61,0,2.57-.06,3-.06a1.67,1.67,0,0,1,0,1,4.41,4.41,0,0,0-1,.21c-.38.17-.44.48-.44,1,0,.88,0,1.93,0,3.11a.4.4,0,0,0,.09.17,57.14,57.14,0,0,0,4.35,0c.06,0,.13-.08.13-.13,0-1,0-2.12,0-3.32,0-.27-.08-.65-.34-.76a3.81,3.81,0,0,0-1.23-.27,1.43,1.43,0,0,1,0-1c1,0,1.46.06,3,.06s2.21-.06,2.91-.06a1.33,1.33,0,0,1,0,1,3,3,0,0,0-1,.25c-.36.15-.42.42-.44,1.09,0,1.37,0,2.4,0,4.14,0,1.43,0,3.13,0,4.08,0,.38.08.8.42,1a5.85,5.85,0,0,0,1.32.32,2,2,0,0,1-.11,1c-.44,0-1.38-.06-3.07-.06s-2.61.06-3,.06a1.33,1.33,0,0,1,0-1,6,6,0,0,0,1.08-.23c.28-.11.42-.4.43-.86,0-1,0-2.12,0-3.49,0,0,0-.13-.09-.13-.36,0-1.31,0-2.16,0a11,11,0,0,0-2.29.06.32.32,0,0,0,0,.13c0,1.35,0,2.44,0,3.2,0,.5.06.88.49,1.05a8.15,8.15,0,0,0,1.19.29,1.52,1.52,0,0,1-.09,1c-.34,0-1.25-.06-3.27-.06-1.57,0-2.54.06-2.86.06a1.66,1.66,0,0,1,0-1,8.74,8.74,0,0,0,.95-.23c.51-.15.64-.5.68-1.24,0-.32,0-2.27,0-4.16,0-2.08,0-3.3,0-3.93s-.08-.93-.47-1.05a5.65,5.65,0,0,0-1.1-.23,1.84,1.84,0,0,1,0-1"/><path class="cls-2" d="M295.44,50c.64,0,1.38.06,2.86.06.62,0,1.34,0,1.72,0a5.72,5.72,0,0,0,.76,1.26c1.59,2.19,4.09,5.7,5.26,7.15l.11,0c0-2.69,0-4.33-.11-5.95,0-.69-.23-1.07-.87-1.22a12.46,12.46,0,0,0-1.23-.23,2.27,2.27,0,0,1,0-1c.42,0,1.27.06,2.71.06s2.08-.06,2.54-.06a2.3,2.3,0,0,1,0,1,5.24,5.24,0,0,0-.76.19c-.51.17-.79.27-.89,1.32-.11,1.66-.17,4.69-.15,7.46,0,1,0,2.16,0,3a13.93,13.93,0,0,0-2.1,0c-1.44-2.06-4.88-7.12-6.57-9.44-.08-.08-.11,0-.11,0,0,2.31,0,5.7.06,6.6s.36,1.28.87,1.43c.32.08.66.15,1.19.25a1.69,1.69,0,0,1,0,1c-.87,0-1.76-.06-2.63-.06s-1.89.06-2.71.06a2.27,2.27,0,0,1,0-1,5.85,5.85,0,0,0,1.19-.32,1.29,1.29,0,0,0,.64-1.22c.11-1.16.17-5.4.17-7.63a1.33,1.33,0,0,0-.64-1.28,4.34,4.34,0,0,0-1.31-.36,2.81,2.81,0,0,1,0-1.05"/><path class="cls-2" d="M312.5,61.25a7.27,7.27,0,0,1-1.61-4.83,6.64,6.64,0,0,1,2.29-5.32,6.91,6.91,0,0,1,4.3-1.43c4,0,6.06,3,6.06,6.54a7.66,7.66,0,0,1-1.17,4.29,6.2,6.2,0,0,1-5.13,2.67,5.84,5.84,0,0,1-4.73-1.91m6.62.08c.87-.88,1.14-2.56,1.14-4.37,0-2.21-.51-4.31-1.65-5.38a2.33,2.33,0,0,0-1.72-.71,2.16,2.16,0,0,0-1.34.42c-1.06.8-1.38,2.56-1.38,4.5s.47,4.14,1.76,5.36a2.61,2.61,0,0,0,1.84.76,1.92,1.92,0,0,0,1.36-.57"/><path class="cls-2" d="M325.73,50c1,0,1.59.06,3.12.06s2.14,0,3-.06a1.83,1.83,0,0,1,0,1,6.67,6.67,0,0,0-1,.21c-.44.15-.51.32-.53.84,0,.34,0,1.26,0,3.51s0,4.56.06,5.11a.81.81,0,0,0,.38.65,11.59,11.59,0,0,0,2.5.13c.36,0,.76-.23,1.08-.84s.85-1.79,1.15-2.52a1.54,1.54,0,0,1,1,.42,20,20,0,0,1-1.27,4.1c0,.15-.25.29-.91.29-1.65,0-4.05-.11-5.62-.11-1.85,0-2.57.06-3,.06a1.82,1.82,0,0,1,0-1,9.32,9.32,0,0,0,1.21-.21.78.78,0,0,0,.55-.8c0-.48.06-3.09.06-4.35,0-2.5,0-3.62,0-4.44,0-.44-.17-.73-.55-.84a9.63,9.63,0,0,0-1.15-.21,1.61,1.61,0,0,1,.08-1"/><path class="cls-2" d="M339.65,61.25A7.27,7.27,0,0,1,338,56.42a6.64,6.64,0,0,1,2.29-5.32,6.9,6.9,0,0,1,4.3-1.43c4,0,6.06,3,6.06,6.54a7.66,7.66,0,0,1-1.17,4.29,6.2,6.2,0,0,1-5.13,2.67,5.84,5.84,0,0,1-4.73-1.91m6.62.08c.87-.88,1.14-2.56,1.14-4.37,0-2.21-.51-4.31-1.65-5.38a2.33,2.33,0,0,0-1.72-.71,2.16,2.16,0,0,0-1.34.42c-1.06.8-1.38,2.56-1.38,4.5s.47,4.14,1.76,5.36a2.62,2.62,0,0,0,1.84.76,1.92,1.92,0,0,0,1.36-.57"/><path class="cls-2" d="M364.89,62.37a16.2,16.2,0,0,1-4.48.8c-4.39,0-7-2.27-7-6.79a6.2,6.2,0,0,1,3.48-5.91,8.63,8.63,0,0,1,3.92-.8,37.39,37.39,0,0,1,4.11.48,24.39,24.39,0,0,0-.32,4,1.31,1.31,0,0,1-1,.1c-.19-1.45-.44-2.23-.95-2.67a3.74,3.74,0,0,0-2.44-.82c-1.85,0-3.41,1.18-3.41,5.21,0,3.3,1.53,6,4,6a1.19,1.19,0,0,0,.78-.34,1.81,1.81,0,0,0,.15-.61,12.55,12.55,0,0,0,0-1.7c0-.53-.06-1-.61-1.22-.36-.13-.78-.13-1.46-.27a2.17,2.17,0,0,1,0-1.05c.51,0,1.93.06,3.46.06,1.38,0,2.16,0,2.61-.06a2.46,2.46,0,0,1,0,1.05A6.22,6.22,0,0,0,365,58c-.3.1-.44.31-.44.82s0,2.25,0,2.35.13.27.45.57a1.59,1.59,0,0,1-.17.61"/><path class="cls-2" d="M366.57,50c.68,0,1.65.06,2.67.06,1.29,0,2.78,0,3.14-.06a1.66,1.66,0,0,1,0,1,3.88,3.88,0,0,0-.53.13c-.32.08-.21.38-.09.67.28.76,1.5,3.47,1.8,4,0,0,.11,0,.15,0a27.88,27.88,0,0,0,1.8-4c0-.29,0-.5-.42-.61s-.68-.15-1.1-.21a2.39,2.39,0,0,1,.09-1c.72,0,1.32.06,2.55.06s1.7-.06,2.42-.06a1.82,1.82,0,0,1,0,1c-.42.11-.83.15-1,.23-.57.23-.79.4-1.38,1.39-.74,1.28-1.85,3.51-2.27,4.43a2,2,0,0,0-.23,1c0,1,0,1.22,0,2.29,0,.63.06,1.14.63,1.26.32.08.74.15,1.19.25a2,2,0,0,1-.09,1c-.55,0-2.23-.08-3.37-.08-1.51,0-2,.08-3.07.08a1.75,1.75,0,0,1,0-1,10.73,10.73,0,0,0,1.31-.25c.47-.15.57-.55.57-1.14,0-1,0-1.28,0-2.21a3.51,3.51,0,0,0-.28-1.11c-.34-.86-1.44-3.11-2.12-4.48-.53-1.07-.87-1.37-1.32-1.51a5.54,5.54,0,0,0-1.14-.21,1.9,1.9,0,0,1,.06-1"/></g></g></svg>