<svg xmlns="http://www.w3.org/2000/svg" viewBox="0 0 347.36 60.59"><defs><style>.cls-1{fill:#fff;}</style></defs><title>資產 6</title><g id="圖層_2" data-name="圖層 2"><g id="圖層_1-2" data-name="圖層 1"><path class="cls-1" d="M89.32,28.35a13.77,13.77,0,0,0-4.6-1.4,17.63,17.63,0,0,0-4.86.1,27.18,27.18,0,0,0-4.69,1.2,52,52,0,0,0-8.61,4.1c-2.73,1.58-5.35,3.29-7.93,5L55.1,39.82l1.58.83c.9.49,1.81,1,2.74,1.56l1.75-1.38c2.41-1.9,4.82-3.78,7.3-5.52,1.24-.88,2.49-1.72,3.77-2.5a42,42,0,0,1,3.93-2.17,20.68,20.68,0,0,1,8.48-2.27,13.74,13.74,0,0,1,4.38.69,16.31,16.31,0,0,1,4.07,2.08,15.3,15.3,0,0,0-3.78-2.78M49.81,43.47c-.86.59-1.73,1.17-2.6,1.75-1.27.84-2.54,1.67-3.82,2.46a73.13,73.13,0,0,1-7.81,4.25q-1,.45-2,.85c-.67.26-1.35.51-2,.71l-.24.08-.28.08-.55.17c-.28.09-.63.16-.94.25l-1,.2-1,.15A24.65,24.65,0,0,1,19.46,54a20.19,20.19,0,0,1-7.31-3.15A14.75,14.75,0,0,1,7.32,45a17.7,17.7,0,0,1-1.16-3.73,23.37,23.37,0,0,1-.34-4c0-.08,0-.16,0-.25v-.29l0-.58,0-.58v-.46c.09-.68.12-1.37.27-2a17.63,17.63,0,0,1,1.11-3.84A15.26,15.26,0,0,1,12,23.08a22.33,22.33,0,0,1,7.42-3.7,31.55,31.55,0,0,1,4.22-.95c.72-.1,1.44-.21,2.16-.27l1.08-.08,1,0h1.54l.4-1.33.26-.87.13-.44c0-.14.11-.28.16-.43l.32-.85.38-.83.19-.41.22-.4c.15-.26.29-.54.45-.8.33-.51.65-1,1-1.51s.78-1,1.18-1.43.86-.9,1.33-1.31c.23-.22.46-.42.71-.62s.48-.41.74-.59l.77-.56.8-.53c.26-.18.54-.34.82-.5s.55-.33.84-.48c.56-.31,1.14-.6,1.73-.88l.89-.4.9-.37C44.34,2.23,45,2,45.58,1.8Q47.45,1.19,49.4.74c.65-.14,1.3-.28,2-.39s1.31-.22,2-.29a29.28,29.28,0,0,0-4,0c-.67,0-1.35.11-2,.19s-1.34.2-2,.32-1.33.27-2,.43l-1,.26-1,.3c-.65.21-1.31.43-1.95.7q-.48.19-1,.4c-.32.15-.64.28-.95.44l-.93.48-.91.52c-.31.17-.59.38-.89.57s-.59.39-.87.61c-.58.41-1.12.87-1.67,1.33a20.88,20.88,0,0,0-1.53,1.51c-.5.52-.94,1.09-1.39,1.66-.22.29-.41.59-.62.89l-.31.45-.28.47-.54.94-.47,1c-.08.16-.16.33-.23.49l0,.11H25.63c-.82,0-1.64,0-2.45.11A36,36,0,0,0,18.3,15,26.29,26.29,0,0,0,9,19a20.4,20.4,0,0,0-6.75,8.06,13,13,0,0,0-.52,1.22,12.21,12.21,0,0,0-.45,1.24L.9,30.77c-.11.42-.19.85-.29,1.27-.21.85-.29,1.7-.42,2.55l0,.16v0a.61.61,0,0,0,0,.13V35l0,.29,0,.58,0,.58,0,.29c0,.1,0,.22,0,.33a26,26,0,0,0,0,2.66,25.48,25.48,0,0,0,.29,2.6,23.61,23.61,0,0,0,1.49,5.13,20.53,20.53,0,0,0,6.76,8.35,25.33,25.33,0,0,0,9.59,4.14,29,29,0,0,0,10.25.36l1.29-.22c.43-.1.86-.18,1.29-.29s.85-.22,1.3-.37l.55-.18.28-.09.31-.11c.83-.3,1.59-.6,2.35-.93s1.5-.67,2.24-1a67.87,67.87,0,0,0,8.28-4.92c2.62-1.78,5.13-3.67,7.58-5.58l.25-.2c-.9-.63-1.78-1.24-2.64-1.82q-.85-.57-1.68-1.09"/><path class="cls-1" d="M60.11,30.29l.3-.23c.2-.15.5-.38.9-.66s.89-.63,1.48-1,1.27-.84,2.05-1.32a60,60,0,0,1,5.82-3.14,46.12,46.12,0,0,1,8.15-3,31.74,31.74,0,0,1,5-.87A22.73,22.73,0,0,1,86.51,20a21.36,21.36,0,0,1,2.84.26,16.86,16.86,0,0,1,5.73,2l.68.41.66.45c.22.15.43.32.64.48l.08.06,0,0,.07.06.14.12.27.23.14.12.16.14.31.29.16.15.14.15.28.29a16.29,16.29,0,0,1,1.07,1.25,15.34,15.34,0,0,1,1.76,2.86,16.21,16.21,0,0,1,1.11,3.22,16.83,16.83,0,0,1,.43,3.4,18.72,18.72,0,0,1-.24,3.43,20,20,0,0,1-.84,3.33,20.78,20.78,0,0,1-1.38,3.14,22.65,22.65,0,0,1-4.13,5.47A21.67,21.67,0,0,1,91,55.26a20.4,20.4,0,0,1-6.58,1.91,21.14,21.14,0,0,1-3.38.12c-.28,0-.56,0-.84-.06s-.56,0-.83-.09L79,57.08l-.21,0h-.13l-.09,0L78.16,57l-.19,0-.19,0L77,56.72l-.78-.18c-.52-.13-1-.27-1.53-.42-1-.3-2-.66-2.93-1s-1.87-.81-2.76-1.25c-.44-.22-.88-.45-1.32-.68s-.85-.47-1.27-.71c-.84-.48-1.65-1-2.43-1.48s-1.56-1-2.3-1.51c-1.49-1-2.91-2-4.28-3s-2.68-1.89-3.95-2.74a38.63,38.63,0,0,0-7.22-4,16.75,16.75,0,0,0-6.14-1.25,14.88,14.88,0,0,0-2.36.19c-.34,0-.66.12-.95.18l-.78.2-.61.18-.44.15-.36.12.33-.19.41-.23.58-.29.76-.32c.28-.1.59-.23.94-.34A13.52,13.52,0,0,1,40,37.61a17,17,0,0,1,6.74.5c.64.17,1.28.36,1.94.6s1.32.49,2,.78,1.35.6,2,.94,1.37.7,2.07,1.07c1.39.75,2.8,1.59,4.24,2.45s2.91,1.76,4.44,2.65a59.36,59.36,0,0,0,9.71,4.78c.86.31,1.74.58,2.63.82.44.12.89.23,1.34.33l.68.14.65.11.18,0,.19,0,.37.05h.15l.17,0,.34,0c.22,0,.45,0,.67.05l.67,0a16.68,16.68,0,0,0,7.87-1.74,17.37,17.37,0,0,0,4.47-3.17,17.94,17.94,0,0,0,5.19-9.48A15,15,0,0,0,99,36a12.62,12.62,0,0,0-.24-2.58,12.1,12.1,0,0,0-2-4.62,12.51,12.51,0,0,0-.77-1l-.21-.24-.1-.12-.1-.1-.2-.21-.1-.11-.13-.12-.26-.24-.13-.12s-.06-.05,0,0l0,0-.06,0-.47-.4-.49-.37-.5-.35a13.88,13.88,0,0,0-4.47-1.85A20.23,20.23,0,0,0,83.94,23c-.79,0-1.57.05-2.34.12s-1.53.18-2.27.29c-1.48.23-2.9.56-4.24.91q-1,.26-2,.55l-1.83.59c-2.36.8-4.39,1.62-6,2.34s-2.94,1.33-3.81,1.77l-1,.5-.34.18"/><path class="cls-1" d="M85.48,16.28l.17.32c.05.11.1.22.14.33l.29.66.05.14h1.11a21.77,21.77,0,0,1,2.23.17c-.11-.46-.23-.92-.36-1.38l-.27-.81c0-.14-.09-.27-.14-.41l-.17-.4-.34-.81-.4-.79-.2-.4c-.07-.13-.15-.26-.22-.39l-.46-.77c-.16-.26-.34-.5-.51-.75l-.26-.37L86,10.46l-.14-.18-.57-.71L85,9.21l-.31-.34-.62-.68c-.21-.22-.44-.43-.66-.64s-.44-.43-.67-.63l-.71-.59L81.7,6l-.18-.15-.19-.14-.77-.56c-.53-.4-1-.68-1.48-1l-.36-.23-.09-.06,0,0-.07,0h0l-.2-.11-.81-.46A26.36,26.36,0,0,0,70.54.66l-.44-.1L69.64.48,68.75.33c-.3-.05-.59-.08-.89-.11L67,.12c-.29,0-.59,0-.88-.06l-.88,0c-.29,0-.58,0-.87,0h-.86A34.22,34.22,0,0,0,57,.85a40.28,40.28,0,0,0-5.53,1.67,43.41,43.41,0,0,0-4.41,2c-1.27.66-2.35,1.3-3.21,1.85s-1.52,1-2,1.35-.66.52-.66.52L42,7.89c.5-.21,1.25-.5,2.19-.85s2.1-.75,3.44-1.16,2.84-.83,4.5-1.21a50.49,50.49,0,0,1,5.37-.94,38.61,38.61,0,0,1,6-.26l1.55.1.78.08c.26,0,.52,0,.78.09a29.89,29.89,0,0,1,3.1.61,25.46,25.46,0,0,1,5.94,2.32l.7.39.18.1h0l.09.06.37.23c.48.31,1,.62,1.4.92l.63.45.16.11.16.12.31.25.62.49.59.52c.19.18.4.34.58.53l.55.55.28.27.26.29.51.58.13.14.12.15.23.3c.15.2.32.4.46.6l.42.62.21.31.19.32.38.63.33.65"/><path class="cls-1" d="M9.89,44.76a4.68,4.68,0,0,0,2.74,1,2.32,2.32,0,0,0,2.53-2.34c0-1.35-.4-2.27-3.63-4.33-2.07-1.32-4.91-2.88-4.91-6.91s3.08-6.3,6.71-6.3a36.1,36.1,0,0,1,5.55.64,39.59,39.59,0,0,0-.52,5.28,2.07,2.07,0,0,1-1.49,0c-.34-2-.82-2.95-1.43-3.52a3.07,3.07,0,0,0-2.26-.78,2.51,2.51,0,0,0-2.47,2.68c0,1.42.7,2.2,2,3l3.57,2.23C18.55,37,19.55,38.4,19.55,41c0,3.52-2.62,6.63-7.59,6.63A11.08,11.08,0,0,1,6.9,46.42a22.52,22.52,0,0,1-1.19-5.79,2.28,2.28,0,0,1,1.49-.54,10.5,10.5,0,0,0,2.68,4.67"/><path class="cls-1" d="M21.23,26.38c1.1,0,2.65.1,4.3.1,2.07,0,4.48-.07,5.06-.1a2.69,2.69,0,0,1,0,1.62,6.56,6.56,0,0,0-.85.2c-.52.13-.34.61-.15,1.08.46,1.22,2.41,5.59,2.9,6.47.06.07.18,0,.24,0a44.92,44.92,0,0,0,2.9-6.43c0-.47.06-.81-.67-1-.55-.13-1.1-.24-1.77-.34a3.86,3.86,0,0,1,.15-1.62c1.16,0,2.13.1,4.12.1s2.74-.1,3.9-.1a2.94,2.94,0,0,1,0,1.62c-.67.17-1.34.24-1.65.37-.91.37-1.28.64-2.23,2.23-1.19,2.06-3,5.65-3.66,7.14a3.14,3.14,0,0,0-.37,1.66c0,1.62,0,2,0,3.69,0,1,.09,1.83,1,2,.52.14,1.19.24,1.92.41a3.17,3.17,0,0,1-.15,1.59c-.88,0-3.6-.14-5.43-.14-2.44,0-3.23.14-4.94.14a2.82,2.82,0,0,1,0-1.59,17.17,17.17,0,0,0,2.1-.41c.76-.24.91-.88.91-1.83.06-1.59,0-2.06,0-3.55A5.64,5.64,0,0,0,28.52,38c-.55-1.39-2.32-5-3.41-7.21-.85-1.73-1.4-2.2-2.13-2.44A8.86,8.86,0,0,0,21.14,28a3.05,3.05,0,0,1,.09-1.59"/><path class="cls-1" d="M57.71,47.1c-1.28,0-3.17-.1-5.52-.1-2.65,0-4.57.1-5.64.1-.24-.24.15-1.42.36-1.62a11.65,11.65,0,0,0,1.71-.37c.91-.24,1.13-.61,1.22-1.9.15-3.55.12-8.7.12-14.12,0-.07-.09-.3-.18-.3a23.57,23.57,0,0,0-2.71,0c-.49,0-.95.2-1.43,1.32a27,27,0,0,0-1,2.88c-.15.17-1.49-.13-1.62-.47.24-1.42.61-4.33.73-6.16,0-.07.27-.31.37-.27a8.8,8.8,0,0,0,2.93.44H57.67a13.36,13.36,0,0,0,3.84-.37c.12,0,.21.27.21.34a43.34,43.34,0,0,0-.79,6.26,2.68,2.68,0,0,1-1.62.1,17.89,17.89,0,0,0-.58-3.08c-.21-.78-.55-1-1.07-1a21.84,21.84,0,0,0-3,0,.4.4,0,0,0-.15.3c0,4.91-.09,12.66,0,14.52,0,.34,0,1.15.7,1.49a15,15,0,0,0,2.5.51,2.5,2.5,0,0,1-.09,1.62"/><path class="cls-1" d="M144.25,35.82a6.88,6.88,0,0,0-2.63-2.55.23.23,0,0,0-.17,0c-.41.16-.87.69-1.43,1.67-.27.41-.44.64-.55.77a4.16,4.16,0,0,1,0-.44V30a2,2,0,0,1,.42-1.18.85.85,0,0,0,.34-.74c0-.34-.34-.65-.89-.94L138,26.27a1.76,1.76,0,0,0-2.13.26l0,0c-.41.63-.83.57-1.11.47h-13a2.13,2.13,0,0,1-.91-.1,21,21,0,0,0-2.43-1.1,1,1,0,0,0-1,0,1.08,1.08,0,0,0-.36.94v8.53c0,.4-.17.56-.58.56l-2.17-.16a1.1,1.1,0,0,0-.94.26.8.8,0,0,0-.15.7c.07.34.32.71,1.08.71a3,3,0,0,0,.44,0l1.05-.16h27.33c.93,0,1.16-.06,1.27-.13l.06-.06a.87.87,0,0,0-.16-1.19M135.5,29v6.35c0,.4-.17.56-.59.56H134c-.4,0-.56-.17-.56-.59V28.94c0-.4.17-.56.59-.56h.92c.4,0,.56.17.56.59m-6.06,0v6.35c0,.4-.17.56-.59.56H127.8c-.4,0-.56-.17-.56-.59V28.94c0-.4.17-.56.59-.56h1.05c.4,0,.56.17.56.59m-6.19,0v6.35c0,.4-.17.56-.59.56h-1.05c-.4,0-.56-.17-.56-.59V29.07a3,3,0,0,1,.05-.67,14.78,14.78,0,0,1,1.59,0c.41,0,.57.17.57.59"/><path class="cls-1" d="M117.68,23a21,21,0,0,0,.86-5,.91.91,0,0,1,.86-.91h3.52c.4,0,.56.16.56.56a9.77,9.77,0,0,1-.13,1.57,3.09,3.09,0,0,1-.89,2.37,2.3,2.3,0,0,1-1.92.28,1.33,1.33,0,0,0-1.16,0,.74.74,0,0,0-.29.6.23.23,0,0,0,.07.17,4.47,4.47,0,0,0,1.14.67,2.59,2.59,0,0,1,1.1,1.73.66.66,0,0,0,.25.45,1.57,1.57,0,0,0,1.15.18,4.71,4.71,0,0,0,3.14-2,11.58,11.58,0,0,0,1.41-5.12,2.86,2.86,0,0,1,.29-1.12.85.85,0,0,0,.47-.72.22.22,0,0,0,0-.08A4.29,4.29,0,0,0,126,14.9a1.88,1.88,0,0,0-2.17.25,1.65,1.65,0,0,1-1.25.55h-3.23c-.58,0-.66-.25-.66-.52l0-2.23c0-.68.36-.77.63-.77h8.72a.66.66,0,0,1,.73.59A19.52,19.52,0,0,0,131.29,20a1.1,1.1,0,0,1-.22,1.61,22.57,22.57,0,0,1-5.54,3.69c-1,.47-1.12.64-1.15.79a.23.23,0,0,0,0,.18c.11.15.35.22,1.31.12a19.56,19.56,0,0,0,7.14-2.8c.81-.53,1.24-.27,1.5,0a14,14,0,0,0,5.78,3.21,3.15,3.15,0,0,0,2.76-.36l.05,0c.74-.94.57-2-.49-3a2.34,2.34,0,0,1-.25-1.76,8.84,8.84,0,0,1,.16-1.29,9.17,9.17,0,0,0,.14-1.55.23.23,0,0,0-.09-.19.74.74,0,0,0-.7-.17.87.87,0,0,0-.47.7,23.73,23.73,0,0,1-1.06,2.38c-.51.52-1,.72-1.35.59a12.17,12.17,0,0,1-1.41-.83,1.28,1.28,0,0,1-.57-.77A.6.6,0,0,1,137,20c.84-1,1.6-2,2.25-2.88s.89-1,1.07-1c.39-.14.59-.28.66-.46a.23.23,0,0,0,0-.1c0-.57-.64-1.07-1.91-1.55a11.22,11.22,0,0,0-1.36-.51,1.33,1.33,0,0,0-1.72.87,17,17,0,0,1-1.33,2.92c-.31.49-.47.52-.51.52h0c-.05,0-.12-.07-.18-.18A15.22,15.22,0,0,1,132.47,13a.9.9,0,0,1,.05-.67s.09-.11.32-.11h8.89c1,0,1.26-.12,1.38-.3l0-.06c.06-.2,0-.52-.67-1.4a9.2,9.2,0,0,0-2-1.77,1.75,1.75,0,0,0-2.15.41,7.2,7.2,0,0,0-1,1.34.92.92,0,0,1-1.12.44H132.7c-.27,0-.55-.08-.59-.65A8.47,8.47,0,0,1,132,8.72a1.34,1.34,0,0,1,.43-1.09c.37-.37.53-.62.53-.82a.23.23,0,0,0,0-.07c-.06-.18-.28-.37-1.2-.77a13.38,13.38,0,0,0-2.32-.5,1.13,1.13,0,0,0-.91.26,1.21,1.21,0,0,0-.33.92h0c0,1.13.08,2.29.17,3.44a.85.85,0,0,1-.13.62.47.47,0,0,1-.36.12H119.4a2.85,2.85,0,0,1-1.19-.21c-.74-.33-1.5-.63-2.27-.9a1.05,1.05,0,0,0-1,.08,1.14,1.14,0,0,0-.36,1c0,3.93-.12,7.69-.43,11.18a16.14,16.14,0,0,1-1.11,5.21c-.29.82-.38,1.25-.06,1.38l.08,0,.1,0A8.67,8.67,0,0,0,117.68,23"/><path class="cls-1" d="M158.24,19.46c0,.41.41.63,1.22.63H165c.81,0,1.22-.23,1.22-.69,0-.63-.94-.63-1.25-.63h-5.5c-1,0-1.19.38-1.19.69"/><path class="cls-1" d="M181.44,25a.91.91,0,0,0-.65-.13l.11-.11a.23.23,0,0,0,0-.28A8.86,8.86,0,0,0,177,21a.22.22,0,0,0-.23,0,10.68,10.68,0,0,0-2,2.32v0a.81.81,0,0,1-1.07.46h-13.1a9.5,9.5,0,0,0-1.34-.17,1.22,1.22,0,0,0-1.05.27.83.83,0,0,0-.14.77c.19.5.71.72,1.54.64l1-.19h18.66a2.52,2.52,0,0,0,1,0,3.07,3.07,0,0,0-.68.91l-.51.68c-.67,1.36-1.36,1.11-1.59,1h-21a6.29,6.29,0,0,0-1.27-.14h0a1.25,1.25,0,0,0-1.11.28.8.8,0,0,0-.12.75c.13.37.51.77,1.54.61l1-.16h8.1a.44.44,0,0,1,.34.1.49.49,0,0,1,0,.39,11.82,11.82,0,0,1-1.32,2.81,1.85,1.85,0,0,1-1.49,1c-1.6,0-3.33,0-5.15-.16a.2.2,0,0,0-.18.07c-.13.13-.23.38-.1,1.35a15.78,15.78,0,0,0,.46,2,1.29,1.29,0,0,0,.87,1.18.69.69,0,0,0,.74-.51,2.51,2.51,0,0,1,1.31-.38c5.95-.74,11.58-1.66,16.74-2.74a1,1,0,0,1,1.15.55l.71,1.95A2.59,2.59,0,0,0,180.35,38l.31,0a2.6,2.6,0,0,0,1.56-.65,2.82,2.82,0,0,0,.5-2.61,5.3,5.3,0,0,0-2-2.69,9.76,9.76,0,0,0-4-1.75,3.68,3.68,0,0,0-2-.13.23.23,0,0,0-.14.12.6.6,0,0,0,0,.51.84.84,0,0,0,.56.42,3.26,3.26,0,0,1,1,.77c.42.5.37.65.37.65s0,0-.22.06c-3.38.33-6.94.53-10.58.59h-.06a3.24,3.24,0,0,1,.53-.48A18.22,18.22,0,0,0,169,29.94a1.86,1.86,0,0,1,1.36-.9h13.24c.83,0,1.23-.12,1.35-.46,0-.15,0-.38-.79-1.38A14.31,14.31,0,0,0,181.44,25"/><path class="cls-1" d="M184.38,12.06c-.66-.44-1.33-.85-2-1.2a2,2,0,0,0-1.53-.57,2.1,2.1,0,0,0-1.38.95,2.11,2.11,0,0,1-1.28.43h-6.32c-.4,0-.56-.17-.56-.59V9.84c0-.4.17-.56.59-.56h9.21c.83.15,1.38,0,1.63-.48a.23.23,0,0,0,0-.2,10.1,10.1,0,0,0-2.84-2.89,1.57,1.57,0,0,0-1.2-.66,1.12,1.12,0,0,0-.84.51q-.83,1-1.54,2c-.12.23-.37.52-1.18.37H159.32l-1.26-.13a1.23,1.23,0,0,0-1.07.27.81.81,0,0,0-.12.76c.13.37.51.77,1.54.61l1-.16h7.21c.4,0,.56.17.56.59V11.1c0,.4-.17.56-.59.56h-7.39l-.37,0c-.41,0-.92-.12-1-.43a1.87,1.87,0,0,0-.35-.82.23.23,0,0,0-.12-.06c-.27-.06-.46.22-.82,1.17A5.07,5.07,0,0,1,154,14.25l-.06,0a2.39,2.39,0,0,0-.72,2.51,1.68,1.68,0,0,0,.84,1.08,2.5,2.5,0,0,0,3-.56l0-.06a7.18,7.18,0,0,0,1-3.6c0-.27.08-.56.65-.63l.53-.06h7.34c.4,0,.56.17.56.59v5.52a1.84,1.84,0,0,0,1,2.24,4.41,4.41,0,0,0,1.13.17,2,2,0,0,0,2-1.36.23.23,0,0,0,0-.09V13.53c0-.4.17-.56.59-.56H179a.54.54,0,0,1,.41.12.53.53,0,0,1,.09.4l-.22,1.25c-.25.74-.63.83-.9.83h-4.84c-.81,0-1.22.23-1.22.69s.42.66,1.25.66h4.71a3,3,0,0,0,1.52-.29,33.75,33.75,0,0,0,3.33-2.07c.77-.63,1.07-.69,1.18-.67a.93.93,0,0,0,1-.68c0-.43-.28-.81-.93-1.16"/><path class="cls-1" d="M164.83,16.53c.81,0,1.22-.23,1.22-.69,0-.63-.94-.63-1.25-.63h-5c-1,0-1.19.38-1.19.69,0,.63.94.63,1.25.63Z"/><path class="cls-1" d="M178.92,20.35c.81,0,1.22-.23,1.22-.69,0-.63-.94-.63-1.25-.63h-5.5c-1,0-1.19.38-1.19.69,0,.63.94.63,1.25.63Z"/><path class="cls-1" d="M226.15,33.84a.23.23,0,0,0,0-.11c-.09-.11-.31-.26-1.27-.63A15.13,15.13,0,0,1,221,30.59c-.59-.59-.78-1.09-.58-1.52a38.48,38.48,0,0,0,2.88-12.68c.07-.69.39-.78.66-.78h.49c1,0,1.3-.17,1.43-.31a.23.23,0,0,0,0-.23,7.86,7.86,0,0,0-2.62-2.94,1.48,1.48,0,0,0-1.24-.56,1.43,1.43,0,0,0-1,.91l-.89,1.09a1.56,1.56,0,0,1-1.23.7h-2c-.17,0-.28,0-.32-.09s0-.21,0-.39a48.55,48.55,0,0,0,1.73-5.56c.62-.34.91-.66.91-1s-.19-.54-.57-.76l-.06,0A10.78,10.78,0,0,0,214.67,6a.23.23,0,0,0-.2.21c-.11,1.5-.26,3-.46,4.49a1.83,1.83,0,0,1-.11.44l-.1-.13c-.63-1-1.15-1.44-1.67-1.41a.83.83,0,0,0-.52.23.55.55,0,0,0,0-.34c0-.1-.05-.21-1.11-1.06a9.1,9.1,0,0,0-1.7-.92,1.76,1.76,0,0,0-1.87.31,1.54,1.54,0,0,1-1.3.54c-.72,0-.72-.31-.72-.46s0-.55.2-.65c.58-.27.82-.59.7-1a1.36,1.36,0,0,0-1.23-.71,11,11,0,0,0-2.31-.34,1.1,1.1,0,0,0-.87.25,1.22,1.22,0,0,0-.33.93V7.8c0,.28-.1.56-.82.56a2.56,2.56,0,0,1-1.21-.17,12.36,12.36,0,0,0-2.29-.94,1.09,1.09,0,0,0-1,.11,1.08,1.08,0,0,0-.34.91V11a.57.57,0,0,1-.13.42.62.62,0,0,1-.46.11,1.37,1.37,0,0,1-.48,0,1.06,1.06,0,0,0-.94.26.75.75,0,0,0-.12.69c.12.4.47.85,1.45.69a.78.78,0,0,1,.56.14.51.51,0,0,1,.13.39v2.45a1.53,1.53,0,0,0,.17,1.38,1,1,0,0,0,.19.18l-.16.09a1.08,1.08,0,0,0-.34.91v5.12a1.64,1.64,0,0,0,.21,1.52,1.71,1.71,0,0,0,1.54.38c1.19,0,1.87-.5,2-1.34,0-.08.06-.31.66-.31h6.59c.49,0,.56.21.56.43a1.37,1.37,0,0,0,.4,1,1.2,1.2,0,0,0,.95.24c.16,0,.22.07.22.09s0,.12-.12.31l0,.06a.78.78,0,0,1-1.13.6h-3.72a1.16,1.16,0,0,1-.33,0v0a1.08,1.08,0,0,1,.54-.36c.42-.19.64-.4.68-.66a.69.69,0,0,0-.29-.62,3.68,3.68,0,0,0-1.68-.57l-1.16-.27c-.73,0-1.31.41-1.68,1.36l-.12.31c-.31.58-.68.87-1.12.87a18.29,18.29,0,0,1-3.86-.16c-1-.07-1.18,0-1.27.19a.23.23,0,0,0,0,.15l.17.78c.15.48.65.65,1.51.52a15.19,15.19,0,0,1,3.21-.16c.15,0,.21,0,.21,0s.05.11-.19.51a25.16,25.16,0,0,1-2.31,3.84,1.57,1.57,0,0,0-.49,1.32,1.3,1.3,0,0,0,.82.85,2.45,2.45,0,0,0,3.21-.85c.47-.77.87-.73,1.14-.63l.44.16c.22.1.34.21.35.31s0,.24-.42.54a21,21,0,0,1-6.51,2.93l-.09,0a.31.31,0,0,0-.11.34c.07.2.29.31,1.33.36a18,18,0,0,0,7.91-2.47,1.38,1.38,0,0,1,1.53-.1,15.69,15.69,0,0,1,1.58,1.16c.93.87,1.69,1.21,2.36,1s1-.72,1.35-1.74c.12-1.41-.74-2.44-2.56-3.07-.26-.08-.42-.19-.45-.3s0-.28.2-.48A10.76,10.76,0,0,0,209,29c.21-.56.51-.84.94-.84h1.74c.93,0,1.16-.06,1.27-.13a.23.23,0,0,0,.08-.08,1,1,0,0,0-.14-1.17A14.14,14.14,0,0,0,211.36,25a1.72,1.72,0,0,1-.58-1.35c0-.91,0-1.79.06-2.63a1,1,0,0,1,.26-.18l.22-.1c-.25.65-.21.81-.14.93a.23.23,0,0,0,.08.08c.24.14.5,0,1.55-1.24l.53-.67a2.23,2.23,0,0,1,.34-.38.45.45,0,0,1,.07.18,54.55,54.55,0,0,0,2.08,9.3,1.84,1.84,0,0,1,0,1.59,18.29,18.29,0,0,1-5.43,6.13c-.2.1-.8.4-.75.89a.23.23,0,0,0,0,.1c.14.23.49.24,1.34,0a12.52,12.52,0,0,0,6-3.72c.41-.44.64-.48.74-.47s.15,0,.27.23a13.52,13.52,0,0,0,4,4.22.24.24,0,0,0,.14,0h0c.16,0,.32-.15,1-1.38a5.34,5.34,0,0,1,1.9-1.86c.88-.34,1.18-.56,1.13-.84m-6.88-17.63h0a43.3,43.3,0,0,1-1.54,9.59.81.81,0,0,1-.17.35s-.11,0-.29-.34a28.52,28.52,0,0,1-2.38-7.48l0-.06c-.22-.46-.05-1.06.52-1.8.33-.59.71-.87,1.15-.87h2.27a.48.48,0,0,1,.36.11.69.69,0,0,1,.1.49M205,20.64c0-.4.17-.56.59-.56h.82c.28,0,.56.08.56.69v1.35c0,.4-.17.56-.59.56h-.82c-.4,0-.56-.17-.56-.59Zm1.84-9.55c0,.4-.17.56-.59.56h-.69c-.4,0-.56-.17-.56-.59v-.82c0-.28.1-.56.82-.56l1,0a4.63,4.63,0,0,1,0,.7ZM205,13.53c0-.4.17-.56.59-.56h.72c.27,0,.53.08.53.63v.89c0,.4-.17.56-.59.56h-.69c-.4,0-.56-.17-.56-.59Zm6.31-3.17-.26.32a3.35,3.35,0,0,1-.4.41.51.51,0,0,1,.31-.67,2.19,2.19,0,0,0,.47-.28,2.18,2.18,0,0,0-.12.23m-.58,8.48a9,9,0,0,0-1.7-.92,2.35,2.35,0,0,0-.74-.13,1.56,1.56,0,0,0-1.11.45,2,2,0,0,1-1.46.53c-.64,0-.72-.3-.72-.59V17c0-.4.17-.56.59-.56h.66c.55,0,.63.11.63.11h0c.2,1,.76,1.16,1.15,1.14a2.38,2.38,0,0,0,2.56-1,.24.24,0,0,0,0-.11l0-3c0-.4.17-.56.59-.56h1.84a.39.39,0,0,1,.46.52,27.27,27.27,0,0,1-1.8,6.23,7.25,7.25,0,0,0-1-.88m-9.58-4.35c0,.4-.17.56-.59.56h-.66c-.4,0-.56-.17-.56-.59v-.92c0-.4.17-.56.59-.56h.69c.27,0,.53.08.53.63Zm0-3.39c0,.4-.17.56-.59.56h-.66c-.4,0-.56-.17-.56-.59v-.69a.26.26,0,0,0,0-.06c-.05-.19-.09-.45,0-.57s.17-.13.47-.13a3.17,3.17,0,0,1,.59.07c.64,0,.72.32.72.63Zm-1.88,5.55c0-.21.39-.25.67-.25h.66c.4,0,.56.17.56.59v1.22c0,.17,0,.56-.89.56a2.59,2.59,0,0,1-1.28-.17,16.8,16.8,0,0,0-1.55-.68c1-.12,1.65-.55,1.84-1.27m-.06,4.13a2.29,2.29,0,0,1,.06-.65,8.17,8.17,0,0,1,1.1,0c.7,0,.79.32.79.63v1.42c0,.4-.17.56-.59.56h-.79c-.4,0-.56-.17-.56-.59Zm5.84,7.9a12.6,12.6,0,0,1-1.16,2.44,1,1,0,0,1-1.13.46l-1.25-.13c-.15,0-.34-.07-.4-.18s0-.34.18-.64L202.1,29c.31-.58.67-.86,1.11-.86h1.48a.41.41,0,0,1,.3.09.6.6,0,0,1,0,.47"/><path class="cls-1" d="M248.52,31.07a2.09,2.09,0,0,0,1.19,1.36,1.35,1.35,0,0,0,.41.06A2.37,2.37,0,0,0,251.4,32l0,0a4.68,4.68,0,0,0,1.1-3.78c-.51-3-2-6.53-4.58-10.56-.77-1.14-1-1.22-1.16-1.2a.29.29,0,0,0-.24.19.23.23,0,0,0,0,.12,6.65,6.65,0,0,0,.34,1.33,29.19,29.19,0,0,1,1.57,11.55,2.89,2.89,0,0,0,0,1.43"/><path class="cls-1" d="M243.85,13.36a.23.23,0,0,0,0,.15l.17.77c.12.41.48.62,1.1.62l.42,0,1-.19h16.76c1,0,1.25-.14,1.36-.28a.22.22,0,0,0,0-.07c.06-.17,0-.4-.74-1.42a13.22,13.22,0,0,0-1.82-1.65c-.58-.58-1.07-.85-1.51-.8a1,1,0,0,0-.73.48c-.38.44-.72.89-1,1.33a5.51,5.51,0,0,1-.86,1,5.67,5.67,0,0,1-1.09,0c-.73,0-.82-.3-.82-.59V9a4.36,4.36,0,0,1,0-.74,1.28,1.28,0,0,0,.83-.61.84.84,0,0,0,0-.72.23.23,0,0,0-.08-.1A7.94,7.94,0,0,0,253.15,6a1.14,1.14,0,0,0-.89.29,1.26,1.26,0,0,0-.31,1v5.56c0,.4-.17.56-.59.56h-4.86a11.36,11.36,0,0,0-1.37-.17c-1-.1-1.19,0-1.28.16"/><path class="cls-1" d="M242.94,16.72c-.08-.33-.43-.57-1-.72a.62.62,0,0,1-.3-.95q1.28-2.65,2.45-5.29c.16-.8.53-1.22,1.15-1.3h.06a1.33,1.33,0,0,0,.56-.37l0-.07a.87.87,0,0,0,0-.71,1.5,1.5,0,0,0-1-.65,10.54,10.54,0,0,0-3-1,1.18,1.18,0,0,0-1.47,1h0a33.2,33.2,0,0,1-5.78,15.1c-.78,1-.79,1.22-.72,1.38a.23.23,0,0,0,.05.08c.17.18.44.15,1.46-.47a22.1,22.1,0,0,0,2.19-2,1.65,1.65,0,0,1,.42-.34.83.83,0,0,1,0,.14V35.49a4.93,4.93,0,0,0,.09,1.32,1.53,1.53,0,0,0,1.52,1.05,3.6,3.6,0,0,0,.58.05,1.86,1.86,0,0,0,1.92-1.43.25.25,0,0,0,0-.07V18.7a1.55,1.55,0,0,1,.45-1.15.88.88,0,0,0,.37-.83"/><path class="cls-1" d="M265.8,34.66a11.78,11.78,0,0,0-3.9-3.39l-.07,0c-.19,0-.47,0-1.43,1.21l-.51.68a2.63,2.63,0,0,1-.82,1,24.25,24.25,0,0,1-2.48.06c-.21,0-.25,0-.25,0s0-.09.15-.39a23.24,23.24,0,0,0,2-3.82,59.5,59.5,0,0,0,3.21-10.34c.19-.86.38-1,.42-1,.42-.17.64-.38.68-.64s-.12-.51-.51-.8a15.7,15.7,0,0,0-3.46-.78,1.17,1.17,0,0,0-.94.24,1.21,1.21,0,0,0-.34.94,81.39,81.39,0,0,1-2.3,15.81c-.22.74-.6.82-.87.82h-8.91a9.11,9.11,0,0,0-1.34-.17,1.22,1.22,0,0,0-1.08.27A.8.8,0,0,0,243,35c.15.44.55.66,1.22.66l.33,0,1-.19h18.72c1.16.23,1.52-.22,1.62-.63a.23.23,0,0,0,0-.2"/><path class="cls-1" d="M290.87,10.63a4.7,4.7,0,0,1,1.42,2.51,3,3,0,0,0,1.23,2.25,1.76,1.76,0,0,0,.87.22,3.12,3.12,0,0,0,1.14-.25l.05,0a2.44,2.44,0,0,0,1.08-2.11c-.07-1.49-1.07-2.66-3-3.46a7.85,7.85,0,0,0-2.49-.61c-.86,0-1.23.07-1.32.36a.23.23,0,0,0,0,.1c0,.14.12.34,1,1"/><path class="cls-1" d="M293,18.23a11.91,11.91,0,0,0-2.29-.77c-.37-.07-1.24-.24-1.35.27a.22.22,0,0,0,0,0c0,.15.08.34,1,1.25a5.48,5.48,0,0,1,1,2.28A3.4,3.4,0,0,0,292.45,24a2,2,0,0,0,1.16.35,3.41,3.41,0,0,0,.88-.13l.06,0a2.06,2.06,0,0,0,1.09-1.59c.45-1.64-.44-3.1-2.66-4.35"/><path class="cls-1" d="M286.85,26.5l.05,0a2.17,2.17,0,0,0,1.78.32,2.14,2.14,0,0,0,1.19-1.34c.42-1.41-.18-2.81-1.79-4.17A11.3,11.3,0,0,0,285.71,20c-.56-.21-.84-.51-.84-.94V17.75c0-.4.17-.56.59-.56h3.23c1,0,1.24-.14,1.35-.31s.07-.46-.48-1.48a8.81,8.81,0,0,0-2.15-2.13l-.08,0a.83.83,0,0,0-1,.51,15.83,15.83,0,0,0-.89,1.33,1.56,1.56,0,0,1-.58.78,3.56,3.56,0,0,1,0-.61V10.57a.85.85,0,0,1,.63-.87,10.19,10.19,0,0,1,3-.65.84.84,0,0,0,1-.57.25.25,0,0,0,0-.08,1.41,1.41,0,0,0-.86-1.21,15.31,15.31,0,0,0-2.64-1.49c-.32-.26-.85-.37-1.6.46a29.52,29.52,0,0,1-7.8,4c-.85.19-1.34.44-1.53.77a.22.22,0,0,0,0,.16.62.62,0,0,0,.31.42.33.33,0,0,0,.13,0A25.16,25.16,0,0,0,280,11a.8.8,0,0,1,.61.06.42.42,0,0,1,.11.34v4c0,.4-.17.56-.6.56a16.89,16.89,0,0,1-3.73-.16,1.24,1.24,0,0,0-1.07.29.71.71,0,0,0-.12.65c.08.36.39.77,1.39.7a17.2,17.2,0,0,1,3.38-.16.53.53,0,0,1,.38.11.54.54,0,0,1,.05.4,44.36,44.36,0,0,1-4.56,12.59c-.44,1-.42,1.31-.21,1.5s.54.07,1.67-.71a11.38,11.38,0,0,0,3.43-5.37v9.92a2.29,2.29,0,0,0,.54,1.93,1.75,1.75,0,0,0,1.21.41,3.31,3.31,0,0,0,.55,0,1.72,1.72,0,0,0,1.84-1.42V22s0-.06,0-.09a2,2,0,0,1,.32.32,7.55,7.55,0,0,1,.83,2.54,2.68,2.68,0,0,0,.82,1.76"/><path class="cls-1" d="M305.36,22.48a12.75,12.75,0,0,0-2-.78,1.23,1.23,0,0,0-1-.17,1.42,1.42,0,0,0-.79.9,1.94,1.94,0,0,1-.16.21,2.13,2.13,0,0,1,0-.28V9.12a2.83,2.83,0,0,1,.06-.77,1.68,1.68,0,0,0,1-.79.23.23,0,0,0,0-.07,1.11,1.11,0,0,0-.28-.87,1.93,1.93,0,0,0-1.45-.46h0a20,20,0,0,0-2.27-.33,1.08,1.08,0,0,0-.86.26,1.24,1.24,0,0,0-.31,1V24.4c0,.27-.08.59-.68.73-4.76,1.18-8.2,1.94-10.23,2.27-.5.09-.79.26-.9.52a.69.69,0,0,0,.13.67c.31.42.89.47,1.71.15a40.24,40.24,0,0,1,4.32-1.11l4.93-1.12a.78.78,0,0,1,.61,0,.4.4,0,0,1,.11.33V35.8a2.13,2.13,0,0,0,.56,1.89,1.84,1.84,0,0,0,1.23.39,4.83,4.83,0,0,0,1.13-.15l.05,0a1.91,1.91,0,0,0,1.11-2.31V26.08c0-.26.09-.64.88-.86l3.25-.78c1,0,1.2-.43,1.24-.76a.21.21,0,0,0,0-.06c0-.18-.15-.44-1.41-1.13"/><path class="cls-1" d="M345.89,33.29a21.06,21.06,0,0,1-6.25-2.41c-.21-.12-.47-.31-.5-.52a.66.66,0,0,1,.23-.51,18.56,18.56,0,0,0,4.17-7.15,1,1,0,0,1,.88-.76,1,1,0,0,0,.66-.66c.07-.33-.09-.68-.51-1.11a13.21,13.21,0,0,0-2.42-1.46,1.53,1.53,0,0,0-1.17-.3,1.77,1.77,0,0,0-1.08.83,2.22,2.22,0,0,1-1.54.55c-.67,0-.76-.3-.76-.59v-5c0-.4.17-.56.59-.56h7q1.21.18,1.58-.44a.23.23,0,0,0,0-.21,7.57,7.57,0,0,0-2.65-2.84,1.22,1.22,0,0,0-2.22.38l-.89,1.09a1.61,1.61,0,0,1-1.27.67h-1.61c-.4,0-.56-.17-.56-.59V8.3a1,1,0,0,1,.39-.9,1.16,1.16,0,0,0,.59-.74.57.57,0,0,0-.16-.46l-.05,0a8.57,8.57,0,0,0-3.76-.82,1,1,0,0,0-.78.26,1.42,1.42,0,0,0-.35,1.06v5.07c0,.4-.17.56-.59.56h-4.38a1.67,1.67,0,0,1-1.2-.47c-.54-.48-.77-.56-.91-.58a.22.22,0,0,0-.14,0c-.12.06-.34.24-1,1.15-.59,1.13-1,1.25-1.12,1.21,0,0-.09-.1-.09-.61V8.23c0-.29,0-.65.28-.75.43-.24.66-.49.71-.76a.69.69,0,0,0-.19-.58l-.06,0a9.12,9.12,0,0,0-3.63-.75,1.08,1.08,0,0,0-.84.28A1.44,1.44,0,0,0,320,6.68V13c0,.4-.17.56-.6.56a13,13,0,0,1-2.61-.13,1.28,1.28,0,0,0-1.09.3.79.79,0,0,0-.13.72c.1.36.44.75,1.52.62a9.35,9.35,0,0,1,2.36-.16c.4,0,.56.17.56.59v4.77a.81.81,0,0,1-.63.83c-.85.26-1.67.48-2.45.65a1.56,1.56,0,0,0-1,.61,1.27,1.27,0,0,0-.13,1,27.19,27.19,0,0,0,1.06,3.09l0,.07c.47.49.82.68,1.13.58s.46-.64.48-.82a1.74,1.74,0,0,1,.85-1.09c.48-.32.62-.27.62-.27s0,.06,0,.21v7.37a5.27,5.27,0,0,1,0,.87,3.35,3.35,0,0,1-2.45.32c-.87-.05-1.3,0-1.44.33a.23.23,0,0,0,0,.1c0,.21.18.43,1.1.91a3.08,3.08,0,0,1,1.54,1.48c.25,1.12.92,1.37,1.5,1.37h.07A4.14,4.14,0,0,0,324,34.86a.23.23,0,0,0,0-.06V22.52a1.65,1.65,0,0,1,.7-1.27q1.52-1.23,3.11-2.42c.8-.77,1-1.11.81-1.36a.23.23,0,0,0-.1-.07c-.15-.06-.36-.05-1.56.56a25.15,25.15,0,0,0-2.29,1.16c-.47.26-.6.19-.62.19s-.06-.09-.06-.25V15.51c0-.4.17-.56.59-.56h3c.95,0,1.2-.11,1.33-.22l0-.05a.83.83,0,0,0-.12-1,1.8,1.8,0,0,1,.38,0h3.69c.4,0,.56.17.56.59v5c0,.4-.17.56-.59.56h-3.42a7.81,7.81,0,0,0-1.38-.14h0a1.14,1.14,0,0,0-1,.31.74.74,0,0,0-.09.69c.13.36.5.77,1.5.64a2,2,0,0,1,.6-.09c.71,0,.82.28.85.58a32.49,32.49,0,0,0,3.37,8.51.85.85,0,0,1-.1,1.3,27,27,0,0,1-8.47,5c-1,.43-1.12.59-1.18.72a.23.23,0,0,0,.05.25c.13.12.37.23,1.35.16a24.87,24.87,0,0,0,10-4.05c.33-.22.86-.43,1.7.35A24.61,24.61,0,0,0,342,37.49c1,.37,1.31.36,1.46.21a.22.22,0,0,0,.06-.09,4.89,4.89,0,0,1,2.54-2.82c1.09-.46,1.23-.65,1.28-.8a.22.22,0,0,0,0-.07c0-.26-.23-.43-1.47-.62M339.4,21.75a17.07,17.07,0,0,1-2.76,6,.89.89,0,0,1-.57.41.85.85,0,0,1-.63-.27,16.78,16.78,0,0,1-4-6.07c-.14-.4-.08-.55,0-.6s.19-.09.29-.09H339a.45.45,0,0,1,.35.11.64.64,0,0,1,0,.5"/><path class="cls-1" d="M115.05,56.06a2.65,2.65,0,0,0,1.55.56A1.32,1.32,0,0,0,118,55.29c0-.77-.22-1.29-2.06-2.46-1.17-.75-2.78-1.63-2.78-3.91a3.49,3.49,0,0,1,3.8-3.57,20.58,20.58,0,0,1,3.14.36,22.33,22.33,0,0,0-.29,3,1.17,1.17,0,0,1-.85,0,3.29,3.29,0,0,0-.81-2,1.74,1.74,0,0,0-1.28-.44,1.42,1.42,0,0,0-1.4,1.52,1.94,1.94,0,0,0,1.12,1.73l2,1.27a3.34,3.34,0,0,1,1.87,3.11c0,2-1.49,3.76-4.3,3.76a6.28,6.28,0,0,1-2.87-.67,12.76,12.76,0,0,1-.67-3.28,1.3,1.3,0,0,1,.85-.31,5.94,5.94,0,0,0,1.52,2.65"/><path class="cls-1" d="M122.31,45.64c.45,0,1,.06,2.64.06,1.47,0,2.35-.06,2.73-.06a1.52,1.52,0,0,1,0,.92,4,4,0,0,0-.9.19c-.35.15-.4.44-.4.9,0,.81,0,1.77,0,2.84a.35.35,0,0,0,.09.15,15.94,15.94,0,0,0,2.11,0,16,16,0,0,0,1.87,0c.05,0,.12-.08.12-.12,0-.94,0-1.94,0-3,0-.25-.07-.59-.31-.69a3.47,3.47,0,0,0-1.12-.25,1.3,1.3,0,0,1,0-.92c.88,0,1.33.06,2.75.06s2-.06,2.66-.06a1.21,1.21,0,0,1,0,.92,2.75,2.75,0,0,0-1,.23c-.33.13-.38.38-.4,1,0,1.25,0,2.19,0,3.78,0,1.3,0,2.86,0,3.72,0,.35.07.73.38.88a5.34,5.34,0,0,0,1.21.29,1.83,1.83,0,0,1-.1.92c-.4,0-1.26-.06-2.8-.06s-2.38.06-2.73.06a1.21,1.21,0,0,1,0-.92,5.44,5.44,0,0,0,1-.21c.26-.1.38-.37.4-.79,0-.92,0-1.94,0-3.18,0,0,0-.12-.09-.12-.33,0-1.19,0-2,0a10,10,0,0,0-2.09.06.3.3,0,0,0,0,.12c0,1.23,0,2.23,0,2.92,0,.46.05.81.45,1a7.48,7.48,0,0,0,1.09.27,1.39,1.39,0,0,1-.09.92c-.31,0-1.14-.06-3-.06-1.43,0-2.32.06-2.61.06a1.53,1.53,0,0,1,0-.92,8,8,0,0,0,.86-.21c.47-.13.59-.46.62-1.13,0-.29,0-2.07,0-3.8,0-1.9,0-3,0-3.59s-.07-.84-.43-1a5.14,5.14,0,0,0-1-.21,1.68,1.68,0,0,1,0-.92"/><path class="cls-1" d="M136.38,45.64c.85,0,1.94.06,2.78.06h3.75a16.05,16.05,0,0,0,2.37-.13s.07,0,.09.1a27.87,27.87,0,0,0-.23,3,1.56,1.56,0,0,1-.93.08,5.71,5.71,0,0,0-.28-1.25.82.82,0,0,0-.76-.56c-.55,0-2.21,0-2.47,0-.09,0-.17.27-.17.37,0,1.21,0,2.05,0,3.36a.16.16,0,0,0,.14.15c.45,0,1.45,0,2,0,.31,0,.43-.15.52-.54.05-.19.1-.54.16-.81a1.88,1.88,0,0,1,1,.08c0,.44-.1,1.4-.1,2s0,1.57,0,2a1.57,1.57,0,0,1-1,0l-.19-.84a.55.55,0,0,0-.52-.44c-.31,0-1.45,0-2,0-.05,0-.14.13-.14.17v2.9a.65.65,0,0,0,.38.63,11.78,11.78,0,0,0,2.4.17,1.23,1.23,0,0,0,1.24-.67,9,9,0,0,0,.86-1.63,1.9,1.9,0,0,1,.92.38,16.86,16.86,0,0,1-.88,2.9c-.05.12-.14.33-.88.33-1.31,0-3-.08-5.27-.08-.93,0-2.38.06-3.33.06a2.71,2.71,0,0,1,0-.92,9.3,9.3,0,0,0,1.38-.27c.28-.08.5-.27.5-.84.05-1.13,0-1.9,0-4.32,0-1.34,0-2.8,0-3.51,0-.56-.22-.67-.5-.77a4.77,4.77,0,0,0-1-.19,1.66,1.66,0,0,1,.05-.92"/><path class="cls-1" d="M147.51,45.64c.59,0,1.26.06,2.61.06.57,0,1.23,0,1.57,0a5.21,5.21,0,0,0,.69,1.15c1.45,2,3.73,5.2,4.8,6.52l.1,0c0-2.46,0-4-.1-5.43,0-.63-.21-1-.79-1.11-.4-.1-.73-.15-1.12-.21a2.07,2.07,0,0,1,0-.92c.38,0,1.16.06,2.47.06s1.9-.06,2.32-.06a2.07,2.07,0,0,1,0,.92,4.76,4.76,0,0,0-.69.17c-.47.15-.73.25-.81,1.21-.1,1.51-.16,4.28-.14,6.81,0,.88,0,2,0,2.72a12.71,12.71,0,0,0-1.92,0c-1.31-1.88-4.46-6.5-6-8.62-.07-.08-.1,0-.1,0,0,2.11,0,5.2.05,6s.33,1.17.79,1.3c.29.08.6.14,1.09.23a1.54,1.54,0,0,1,0,.92c-.8,0-1.61-.06-2.4-.06s-1.73.06-2.47.06a2.07,2.07,0,0,1,0-.92,5.35,5.35,0,0,0,1.09-.29,1.18,1.18,0,0,0,.59-1.11c.1-1.06.16-4.93.16-7a1.21,1.21,0,0,0-.59-1.17,4,4,0,0,0-1.19-.33,2.57,2.57,0,0,1,0-1"/><path class="cls-1" d="M172.12,56.94a14.79,14.79,0,0,1-4.09.73c-4,0-6.41-2.07-6.41-6.2a5.66,5.66,0,0,1,3.18-5.39,7.88,7.88,0,0,1,3.58-.73,34.13,34.13,0,0,1,3.75.44,22.26,22.26,0,0,0-.29,3.68,1.19,1.19,0,0,1-.95.1c-.17-1.32-.4-2-.86-2.44a3.41,3.41,0,0,0-2.23-.75c-1.69,0-3.11,1.07-3.11,4.76,0,3,1.4,5.45,3.68,5.45a1.09,1.09,0,0,0,.71-.31,1.66,1.66,0,0,0,.14-.56,11.45,11.45,0,0,0,0-1.55c0-.48-.05-.92-.55-1.11-.33-.12-.71-.12-1.33-.25a2,2,0,0,1,0-1c.47,0,1.76.06,3.16.06s2,0,2.38-.06a2.24,2.24,0,0,1,0,1,5.73,5.73,0,0,0-.66.15c-.28.1-.4.29-.4.75s0,2.05,0,2.15.12.25.41.52a1.45,1.45,0,0,1-.16.56"/><path class="cls-1" d="M177.54,45.64c.62,0,1.5.06,2.44.06,1.17,0,2.54,0,2.87-.06a1.52,1.52,0,0,1,0,.92,3.55,3.55,0,0,0-.48.12c-.29.08-.19.35-.09.61.26.69,1.36,3.17,1.64,3.67,0,0,.1,0,.14,0a25.46,25.46,0,0,0,1.64-3.65c0-.27,0-.46-.38-.56s-.62-.13-1-.19a2.18,2.18,0,0,1,.09-.92c.66,0,1.21.06,2.33.06s1.55-.06,2.21-.06a1.67,1.67,0,0,1,0,.92c-.38.1-.76.13-.93.21-.52.21-.73.36-1.26,1.27-.67,1.17-1.69,3.2-2.07,4a1.78,1.78,0,0,0-.21.94c0,.92,0,1.11,0,2.09,0,.58.05,1,.57,1.15.29.08.67.13,1.09.23a1.8,1.8,0,0,1-.09.9c-.5,0-2-.08-3.08-.08-1.38,0-1.83.08-2.8.08a1.6,1.6,0,0,1,0-.9,9.73,9.73,0,0,0,1.19-.23c.43-.13.52-.5.52-1,0-.9,0-1.17,0-2a3.21,3.21,0,0,0-.26-1c-.31-.79-1.31-2.84-1.93-4.09-.48-1-.8-1.25-1.21-1.38a5.07,5.07,0,0,0-1-.19,1.74,1.74,0,0,1,.05-.9"/><path class="cls-1" d="M189.17,45.64c.88,0,2,.06,2.9.06s2-.06,2.89-.06a1.67,1.67,0,0,1,0,.92c-.33.06-.71.17-.9.21-.47.11-.57.48-.59,1.09,0,1.4,0,2.23,0,3.26,0,.52,0,1.86.1,2.59A2.38,2.38,0,0,0,196.27,56c1.11,0,2.45-.31,2.59-3.11.07-1.46.09-4.26,0-4.89s-.12-1-.71-1.17a8.41,8.41,0,0,0-1.24-.25,2.36,2.36,0,0,1,0-.92c.81,0,1.62.06,2.44.06,1.61,0,2-.06,2.33-.06a1.39,1.39,0,0,1,0,.92c-.28.08-.54.1-.83.19s-.57.42-.62,1.38c0,.61-.1,3-.16,4.28-.15,4.09-2.09,5.26-4.79,5.26-3.27,0-4.3-1.82-4.44-3.74-.1-1.44-.1-4.91-.12-6.16a.92.92,0,0,0-.55-1,5.66,5.66,0,0,0-1.05-.25,2.07,2.07,0,0,1,0-.92"/><path class="cls-1" d="M202.63,45.64c.59,0,1.26.06,2.61.06.57,0,1.23,0,1.57,0a5.23,5.23,0,0,0,.69,1.15c1.45,2,3.73,5.2,4.8,6.52l.1,0c0-2.46,0-4-.1-5.43,0-.63-.21-1-.8-1.11a11.41,11.41,0,0,0-1.12-.21,2.08,2.08,0,0,1,0-.92c.38,0,1.16.06,2.47.06s1.9-.06,2.32-.06a2.09,2.09,0,0,1,0,.92,4.78,4.78,0,0,0-.69.17c-.47.15-.72.25-.81,1.21-.1,1.51-.16,4.28-.14,6.81,0,.88,0,2,0,2.72a12.71,12.71,0,0,0-1.92,0c-1.31-1.88-4.46-6.5-6-8.62-.07-.08-.1,0-.1,0,0,2.11,0,5.2.05,6s.33,1.17.79,1.3c.29.08.6.14,1.09.23a1.54,1.54,0,0,1,0,.92c-.79,0-1.61-.06-2.4-.06s-1.73.06-2.47.06a2.08,2.08,0,0,1,0-.92,5.34,5.34,0,0,0,1.09-.29,1.18,1.18,0,0,0,.59-1.11c.1-1.06.16-4.93.16-7a1.21,1.21,0,0,0-.59-1.17,4,4,0,0,0-1.19-.33,2.55,2.55,0,0,1,0-1"/><path class="cls-1" d="M228.47,57.38c-.73,0-1.8-.06-3.13-.06-1.5,0-2.59.06-3.2.06a1.14,1.14,0,0,1,0-.92c.52-.08,1-.15,1.18-.21.52-.13.64-.35.69-1.08.09-2,.07-4.93.07-8,0,0-.05-.17-.1-.17a13.56,13.56,0,0,0-1.54,0c-.28,0-.54.12-.81.75a15,15,0,0,0-.59,1.63c-.09.1-.85-.08-.92-.27.14-.81.35-2.46.41-3.49,0,0,.16-.17.21-.15a5,5,0,0,0,1.66.25h6a7.59,7.59,0,0,0,2.18-.21c.07,0,.12.15.12.19a24.65,24.65,0,0,0-.45,3.55,1.52,1.52,0,0,1-.92.06,10.12,10.12,0,0,0-.33-1.75c-.12-.44-.31-.56-.6-.6a12.5,12.5,0,0,0-1.68,0,.23.23,0,0,0-.09.17c0,2.78-.05,7.18,0,8.23,0,.19,0,.65.4.84a8.46,8.46,0,0,0,1.42.29,1.42,1.42,0,0,1-.05.92"/><path class="cls-1" d="M232.28,45.64c.85,0,1.93.06,2.78.06h3.75a16,16,0,0,0,2.37-.13s.07,0,.09.1a28,28,0,0,0-.22,3,1.56,1.56,0,0,1-.93.08,5.68,5.68,0,0,0-.28-1.25.82.82,0,0,0-.76-.56c-.55,0-2.21,0-2.47,0-.09,0-.17.27-.17.37,0,1.21,0,2.05,0,3.36a.16.16,0,0,0,.14.15c.45,0,1.45,0,2,0,.31,0,.43-.15.52-.54.05-.19.1-.54.16-.81a1.88,1.88,0,0,1,1,.08c0,.44-.1,1.4-.1,2s0,1.57,0,2a1.57,1.57,0,0,1-1,0l-.19-.84a.55.55,0,0,0-.52-.44c-.31,0-1.45,0-2,0-.05,0-.14.13-.14.17v2.9a.65.65,0,0,0,.38.63,11.78,11.78,0,0,0,2.4.17,1.23,1.23,0,0,0,1.24-.67,9,9,0,0,0,.86-1.63,1.9,1.9,0,0,1,.92.38,16.82,16.82,0,0,1-.88,2.9c-.05.12-.14.33-.88.33-1.31,0-3-.08-5.27-.08-.93,0-2.38.06-3.33.06a2.73,2.73,0,0,1,0-.92,9.32,9.32,0,0,0,1.38-.27c.28-.08.5-.27.5-.84.05-1.13,0-1.9,0-4.32,0-1.34,0-2.8,0-3.51,0-.56-.22-.67-.5-.77a4.78,4.78,0,0,0-1-.19,1.66,1.66,0,0,1,.05-.92"/><path class="cls-1" d="M251.65,46.85a3.5,3.5,0,0,0-1.9-.48c-1.81,0-3,1.55-3,4.85,0,2.15.93,5.12,3.8,5.12a2,2,0,0,0,1.45-.52,8.85,8.85,0,0,0,1.45-2,1.48,1.48,0,0,1,.71.57,6.94,6.94,0,0,1-1.56,2.74,6.35,6.35,0,0,1-2.56.5c-3.92,0-6.32-2.09-6.32-6.27a5.74,5.74,0,0,1,2.92-5.26,7.24,7.24,0,0,1,3.47-.79c1.66,0,3,.33,3.65.35-.09.67-.22,2.3-.22,3.34-.09.15-.83.23-.86.1-.24-1.23-.35-1.84-1-2.28"/><path class="cls-1" d="M255.88,45.64c.45,0,1,.06,2.64.06,1.47,0,2.35-.06,2.73-.06a1.52,1.52,0,0,1,0,.92,4,4,0,0,0-.9.19c-.35.15-.4.44-.4.9,0,.81,0,1.77,0,2.84a.37.37,0,0,0,.09.15,52.18,52.18,0,0,0,4,0c.05,0,.12-.08.12-.12,0-.94,0-1.94,0-3,0-.25-.07-.59-.31-.69a3.48,3.48,0,0,0-1.12-.25,1.3,1.3,0,0,1,0-.92c.88,0,1.33.06,2.75.06s2-.06,2.66-.06a1.21,1.21,0,0,1,0,.92,2.75,2.75,0,0,0-1,.23c-.33.13-.38.38-.4,1,0,1.25,0,2.19,0,3.78,0,1.3,0,2.86,0,3.72,0,.35.07.73.38.88a5.34,5.34,0,0,0,1.21.29,1.83,1.83,0,0,1-.1.92c-.4,0-1.26-.06-2.8-.06s-2.38.06-2.73.06a1.21,1.21,0,0,1,0-.92,5.46,5.46,0,0,0,1-.21c.26-.1.38-.37.4-.79,0-.92,0-1.94,0-3.18,0,0,0-.12-.09-.12-.33,0-1.19,0-2,0a10,10,0,0,0-2.09.06.29.29,0,0,0,0,.12c0,1.23,0,2.23,0,2.92,0,.46.05.81.45,1a7.43,7.43,0,0,0,1.09.27,1.39,1.39,0,0,1-.09.92c-.31,0-1.14-.06-3-.06-1.43,0-2.32.06-2.61.06a1.52,1.52,0,0,1,0-.92,8,8,0,0,0,.86-.21c.47-.13.59-.46.62-1.13,0-.29,0-2.07,0-3.8,0-1.9,0-3,0-3.59s-.07-.84-.43-1a5.15,5.15,0,0,0-1-.21,1.68,1.68,0,0,1,0-.92"/><path class="cls-1" d="M269.73,45.64c.59,0,1.26.06,2.61.06.57,0,1.23,0,1.57,0a5.23,5.23,0,0,0,.69,1.15c1.45,2,3.73,5.2,4.8,6.52l.1,0c0-2.46,0-4-.1-5.43,0-.63-.21-1-.8-1.11a11.38,11.38,0,0,0-1.12-.21,2.07,2.07,0,0,1,0-.92c.38,0,1.16.06,2.47.06s1.9-.06,2.32-.06a2.1,2.1,0,0,1,0,.92,4.77,4.77,0,0,0-.69.17c-.47.15-.73.25-.81,1.21-.1,1.51-.16,4.28-.14,6.81,0,.88,0,2,0,2.72a12.72,12.72,0,0,0-1.92,0c-1.31-1.88-4.46-6.5-6-8.62-.07-.08-.1,0-.1,0,0,2.11,0,5.2.05,6s.33,1.17.79,1.3c.29.08.6.14,1.09.23a1.54,1.54,0,0,1,0,.92c-.8,0-1.61-.06-2.4-.06s-1.73.06-2.47.06a2.08,2.08,0,0,1,0-.92,5.34,5.34,0,0,0,1.09-.29,1.18,1.18,0,0,0,.59-1.11c.1-1.06.16-4.93.16-7a1.21,1.21,0,0,0-.59-1.17,4,4,0,0,0-1.19-.33,2.56,2.56,0,0,1,0-1"/><path class="cls-1" d="M285.31,55.92a6.63,6.63,0,0,1-1.47-4.41,6.06,6.06,0,0,1,2.09-4.85,6.3,6.3,0,0,1,3.92-1.31c3.63,0,5.53,2.78,5.53,6a7,7,0,0,1-1.07,3.91,5.66,5.66,0,0,1-4.68,2.44,5.33,5.33,0,0,1-4.32-1.75m6,.08c.8-.81,1-2.34,1-4,0-2-.47-3.93-1.5-4.91a2.13,2.13,0,0,0-1.57-.65,2,2,0,0,0-1.23.38c-1,.73-1.26,2.34-1.26,4.11s.43,3.78,1.61,4.89a2.39,2.39,0,0,0,1.68.69,1.76,1.76,0,0,0,1.24-.52"/><path class="cls-1" d="M297.38,45.64c.88,0,1.45.06,2.85.06s2,0,2.71-.06a1.67,1.67,0,0,1,0,.92,6.09,6.09,0,0,0-.92.19c-.4.13-.47.29-.48.77,0,.31,0,1.15,0,3.21s0,4.16.05,4.66a.74.74,0,0,0,.35.59,10.58,10.58,0,0,0,2.28.12c.33,0,.69-.21,1-.77s.78-1.63,1.05-2.3a1.41,1.41,0,0,1,.9.38A18.25,18.25,0,0,1,306,57.15c0,.13-.22.27-.83.27-1.5,0-3.7-.1-5.13-.1-1.69,0-2.35.06-2.76.06a1.66,1.66,0,0,1,0-.92,8.49,8.49,0,0,0,1.11-.19.72.72,0,0,0,.5-.73c0-.44.05-2.82.05-4,0-2.28,0-3.3,0-4,0-.4-.16-.67-.5-.77a8.8,8.8,0,0,0-1.05-.19,1.47,1.47,0,0,1,.07-.92"/><path class="cls-1" d="M310.1,55.92a6.63,6.63,0,0,1-1.47-4.41,6.06,6.06,0,0,1,2.09-4.85,6.3,6.3,0,0,1,3.92-1.31c3.63,0,5.53,2.78,5.53,6a7,7,0,0,1-1.07,3.91,5.66,5.66,0,0,1-4.68,2.44,5.33,5.33,0,0,1-4.32-1.75m6,.08c.8-.81,1-2.34,1-4,0-2-.47-3.93-1.5-4.91a2.13,2.13,0,0,0-1.57-.65,2,2,0,0,0-1.23.38c-1,.73-1.26,2.34-1.26,4.11s.43,3.78,1.61,4.89a2.39,2.39,0,0,0,1.68.69,1.76,1.76,0,0,0,1.24-.52"/><path class="cls-1" d="M333.14,56.94a14.79,14.79,0,0,1-4.09.73c-4,0-6.41-2.07-6.41-6.2a5.66,5.66,0,0,1,3.18-5.39,7.88,7.88,0,0,1,3.58-.73,34.14,34.14,0,0,1,3.75.44,22.27,22.27,0,0,0-.29,3.68,1.19,1.19,0,0,1-.95.1c-.17-1.32-.4-2-.86-2.44a3.41,3.41,0,0,0-2.23-.75c-1.69,0-3.11,1.07-3.11,4.76,0,3,1.4,5.45,3.68,5.45a1.09,1.09,0,0,0,.71-.31,1.65,1.65,0,0,0,.14-.56,11.45,11.45,0,0,0,0-1.55c0-.48-.05-.92-.55-1.11-.33-.12-.71-.12-1.33-.25a2,2,0,0,1,0-1c.47,0,1.76.06,3.16.06s2,0,2.38-.06a2.25,2.25,0,0,1,0,1,5.69,5.69,0,0,0-.66.15c-.28.1-.4.29-.4.75s0,2.05,0,2.15.12.25.41.52a1.45,1.45,0,0,1-.16.56"/><path class="cls-1" d="M334.68,45.64c.62,0,1.5.06,2.44.06,1.17,0,2.54,0,2.87-.06a1.52,1.52,0,0,1,0,.92,3.53,3.53,0,0,0-.48.12c-.29.08-.19.35-.09.61.26.69,1.37,3.17,1.64,3.67,0,0,.1,0,.14,0a25.46,25.46,0,0,0,1.64-3.65c0-.27,0-.46-.38-.56s-.62-.13-1-.19a2.18,2.18,0,0,1,.09-.92c.66,0,1.21.06,2.33.06s1.55-.06,2.21-.06a1.67,1.67,0,0,1,0,.92c-.38.1-.76.13-.93.21-.52.21-.73.36-1.26,1.27-.67,1.17-1.69,3.2-2.07,4a1.78,1.78,0,0,0-.21.94c0,.92,0,1.11,0,2.09,0,.58.05,1,.57,1.15.29.08.67.13,1.09.23a1.8,1.8,0,0,1-.09.9c-.5,0-2-.08-3.08-.08-1.38,0-1.83.08-2.8.08a1.6,1.6,0,0,1,0-.9,9.77,9.77,0,0,0,1.19-.23c.43-.13.52-.5.52-1,0-.9,0-1.17,0-2a3.2,3.2,0,0,0-.26-1c-.31-.79-1.31-2.84-1.93-4.09-.48-1-.8-1.25-1.21-1.38a5.06,5.06,0,0,0-1-.19,1.73,1.73,0,0,1,.05-.9"/></g></g></svg>