<svg id="图层_1" data-name="图层 1" xmlns="http://www.w3.org/2000/svg" viewBox="0 0 82 50"><defs><style>.cls-1{fill:#192d79;}.cls-2{fill:#1b94d3;}</style></defs><title>LOGO</title><path class="cls-1" d="M70.11,23.5a10.63,10.63,0,0,0-3.55-1.08,13.59,13.59,0,0,0-3.75.08,21,21,0,0,0-3.62.93,40.08,40.08,0,0,0-6.64,3.16c-2.11,1.22-4.13,2.54-6.12,3.89l-2.74,1.88,1.22.64c.7.38,1.4.78,2.11,1.2l1.35-1.07c1.86-1.47,3.72-2.92,5.63-4.26,1-.68,1.92-1.32,2.91-1.93a32.36,32.36,0,0,1,3-1.67,16,16,0,0,1,6.55-1.75,10.6,10.6,0,0,1,3.38.53A12.59,12.59,0,0,1,73,25.65a11.82,11.82,0,0,0-2.91-2.15M39.61,35.17l-2,1.35c-1,.65-2,1.29-2.95,1.9a56.47,56.47,0,0,1-6,3.28q-.77.35-1.54.65c-.51.2-1,.39-1.53.55l-.18.06-.21.07-.43.13c-.22.07-.48.13-.72.19l-.75.16-.77.12a19,19,0,0,1-6.31-.31,15.58,15.58,0,0,1-5.64-2.43,11.39,11.39,0,0,1-3.72-4.51,13.63,13.63,0,0,1-.89-2.88,18,18,0,0,1-.27-3.06c0-.07,0-.12,0-.19V30l0-.45,0-.45v-.25h0v-.1c.07-.52.09-1.06.21-1.57a13.62,13.62,0,0,1,.85-3,11.78,11.78,0,0,1,3.66-4.8,17.25,17.25,0,0,1,5.73-2.86,24.24,24.24,0,0,1,3.26-.73c.55-.08,1.11-.16,1.67-.21l.83-.06.79,0h1.19l.31-1,.2-.67.1-.34c0-.11.08-.22.12-.33l.25-.66.29-.64.15-.32.17-.31c.12-.2.22-.42.35-.62.26-.39.51-.8.8-1.17s.6-.74.91-1.1.66-.7,1-1c.18-.17.36-.33.55-.48s.37-.31.57-.46L30.32,6l.61-.41c.2-.14.42-.26.63-.39s.43-.25.65-.37c.43-.24.88-.46,1.33-.68l.69-.31.7-.29c.47-.18.94-.36,1.43-.52q1.44-.47,2.94-.82c.5-.11,1-.22,1.51-.3s1-.17,1.53-.22a22.68,22.68,0,0,0-3.11,0c-.52,0-1,.08-1.56.15s-1,.15-1.55.25-1,.21-1.54.33l-.77.2L33,2.84c-.5.16-1,.33-1.5.54-.25.1-.5.2-.74.31s-.49.21-.73.34l-.72.37-.7.4c-.24.13-.46.29-.69.44s-.45.3-.67.47c-.45.31-.87.67-1.29,1A16.05,16.05,0,0,0,24.82,7.9c-.39.4-.72.84-1.07,1.28-.17.22-.32.46-.48.69l-.24.35-.21.36-.42.73-.37.76c-.06.13-.12.25-.18.38l0,.08h-.88c-.63,0-1.26,0-1.89.09a27.66,27.66,0,0,0-3.77.58A20.29,20.29,0,0,0,8.1,16.28,15.75,15.75,0,0,0,2.9,22.5a10,10,0,0,0-.4.94,9.42,9.42,0,0,0-.34,1l-.29,1c-.08.33-.15.65-.22,1-.16.65-.22,1.31-.32,2l0,.12v0a.47.47,0,0,0,0,.1v.06l0,.22,0,.45,0,.45,0,.22c0,.08,0,.17,0,.25a20,20,0,0,0,0,2.05,19.71,19.71,0,0,0,.22,2,18.21,18.21,0,0,0,1.15,4,15.85,15.85,0,0,0,5.21,6.44,19.55,19.55,0,0,0,7.4,3.19,22.41,22.41,0,0,0,7.91.28l1-.17,1-.23c.33-.1.65-.17,1-.29l.43-.14.21-.07.24-.09c.64-.23,1.23-.46,1.82-.72s1.16-.52,1.73-.8a52.49,52.49,0,0,0,6.39-3.79c2-1.37,4-2.83,5.85-4.31l.2-.15c-.7-.49-1.38-1-2-1.4l-1.3-.84"/><path class="cls-2" d="M47.56,25l.23-.18.69-.51,1.14-.79c.45-.31,1-.65,1.58-1a46.47,46.47,0,0,1,4.49-2.42A35.63,35.63,0,0,1,62,17.78a24.43,24.43,0,0,1,3.85-.67,17.32,17.32,0,0,1,2.1-.07,16.47,16.47,0,0,1,2.19.2,13,13,0,0,1,4.42,1.54l.52.32.51.35c.17.12.33.25.49.37l.06,0,0,0,.05,0,.1.09.21.18.11.09.12.11.24.22.12.11.11.11.22.23q.43.46.83,1a11.87,11.87,0,0,1,1.35,2.2,12.55,12.55,0,0,1,.86,2.49,13,13,0,0,1,.33,2.63A14.43,14.43,0,0,1,80.64,32,15.43,15.43,0,0,1,80,34.58,16,16,0,0,1,78.93,37a17.48,17.48,0,0,1-3.19,4.22,16.74,16.74,0,0,1-4.35,3,15.73,15.73,0,0,1-5.08,1.47,16.31,16.31,0,0,1-2.61.09l-.65,0-.64-.07-.32,0-.16,0h-.17l-.29,0-.14,0-.15,0-.63-.13-.6-.14c-.4-.1-.79-.21-1.18-.33-.78-.23-1.53-.51-2.26-.81s-1.44-.62-2.13-1l-1-.52-1-.55c-.65-.37-1.27-.75-1.88-1.14s-1.2-.77-1.78-1.17c-1.15-.78-2.25-1.56-3.3-2.3s-2.07-1.46-3-2.11a29.8,29.8,0,0,0-5.57-3.06,12.92,12.92,0,0,0-4.74-1,11.45,11.45,0,0,0-1.82.15c-.27,0-.51.1-.73.14l-.6.15-.47.14-.34.11-.28.1.26-.14.32-.17.45-.22.58-.25c.22-.08.46-.18.72-.26A10.43,10.43,0,0,1,32,30.64a13.08,13.08,0,0,1,5.2.39c.49.13,1,.28,1.49.46s1,.38,1.54.6,1,.47,1.57.73,1.06.54,1.59.83c1.07.58,2.16,1.23,3.28,1.89s2.25,1.36,3.42,2a45.77,45.77,0,0,0,7.5,3.69c.67.24,1.35.45,2,.64.34.09.69.17,1,.25l.52.11.5.09.14,0,.14,0,.29,0h.25l.26,0,.52,0,.52,0a12.88,12.88,0,0,0,6.07-1.34,13.41,13.41,0,0,0,3.45-2.45,13.85,13.85,0,0,0,4-7.31,11.64,11.64,0,0,0,.19-2,9.74,9.74,0,0,0-.19-2,9.35,9.35,0,0,0-1.52-3.56,9.5,9.5,0,0,0-.6-.76l-.16-.18L75,22.82l-.08-.08-.16-.16-.08-.08-.1-.09-.2-.19-.1-.09s0,0,0,0l0,0,0,0-.36-.31-.38-.29-.39-.27a10.71,10.71,0,0,0-3.45-1.43A15.62,15.62,0,0,0,66,19.4c-.61,0-1.21,0-1.81.09s-1.18.14-1.75.23c-1.15.18-2.24.43-3.28.7-.52.14-1,.28-1.51.43l-1.42.45c-1.82.61-3.39,1.25-4.67,1.81s-2.27,1-2.94,1.36l-.77.39-.26.14"/><path class="cls-1" d="M67.15,14.19l.13.25.11.26.22.51,0,.11h.86a16.62,16.62,0,0,1,1.72.13c-.08-.35-.18-.71-.28-1.06l-.21-.63c0-.1-.07-.21-.11-.31l-.13-.31-.26-.62-.3-.61-.15-.31-.17-.3-.35-.59c-.12-.2-.26-.38-.39-.58l-.2-.29-.1-.14-.11-.14L67,9l-.22-.27-.24-.26-.48-.52c-.16-.17-.34-.33-.51-.5L65,7l-.55-.46-.27-.23-.14-.11-.15-.11-.59-.43c-.41-.31-.77-.53-1.15-.77l-.28-.18-.07,0,0,0-.05,0h0l-.16-.09L61,4.11a20.34,20.34,0,0,0-5.35-2L55.27,2,54.92,2l-.69-.12c-.23,0-.46-.06-.69-.09l-.69-.07c-.23,0-.46,0-.68,0l-.68,0c-.22,0-.45,0-.67,0h-.66a26.35,26.35,0,0,0-5,.64A31.11,31.11,0,0,0,40.9,3.56a33.59,33.59,0,0,0-3.41,1.52c-1,.51-1.81,1-2.48,1.43s-1.17.79-1.51,1S33,8,33,8l.6-.25c.39-.16,1-.38,1.69-.65s1.62-.58,2.65-.9,2.2-.64,3.47-.93a39.19,39.19,0,0,1,4.14-.72,29.87,29.87,0,0,1,4.61-.2l1.19.08.6.06c.2,0,.4,0,.6.07A23.09,23.09,0,0,1,54.94,5a19.69,19.69,0,0,1,4.58,1.79l.54.3.14.07h0l.07,0,.28.18c.37.24.77.48,1.08.71l.49.35.12.09.12.1.24.19.48.38.45.4c.15.14.31.26.45.41l.42.43.21.21.2.22.39.44.1.11.09.12.18.23c.12.16.24.31.35.47l.32.48.16.24.15.25.29.49.26.5"/><path class="cls-1" d="M8.8,36.17a3.61,3.61,0,0,0,2.12.76,1.79,1.79,0,0,0,2-1.8c0-1-.31-1.75-2.8-3.34-1.6-1-3.79-2.22-3.79-5.33s2.38-4.86,5.18-4.86a27.86,27.86,0,0,1,4.28.5,30.56,30.56,0,0,0-.4,4.08,1.6,1.6,0,0,1-1.15,0,4.48,4.48,0,0,0-1.11-2.72,2.37,2.37,0,0,0-1.74-.6,1.94,1.94,0,0,0-1.91,2.06A2.65,2.65,0,0,0,11,27.28L13.71,29c1.77,1.15,2.54,2.25,2.54,4.23,0,2.72-2,5.12-5.86,5.12a8.56,8.56,0,0,1-3.91-.91A17.41,17.41,0,0,1,5.57,33a1.76,1.76,0,0,1,1.15-.42A8.1,8.1,0,0,0,8.8,36.17"/><path class="cls-1" d="M17.55,22c.85,0,2,.08,3.32.08,1.6,0,3.46-.05,3.91-.08a2.08,2.08,0,0,1,0,1.25,5.07,5.07,0,0,0-.66.16c-.4.1-.26.47-.12.84.35.94,1.86,4.31,2.24,5,0,.05.14,0,.19,0a34.73,34.73,0,0,0,2.24-5c0-.37,0-.63-.52-.76s-.85-.18-1.37-.26A3,3,0,0,1,26.92,22c.89,0,1.65.08,3.18.08s2.12-.08,3-.08a2.27,2.27,0,0,1,0,1.25c-.52.13-1,.18-1.27.29-.71.29-1,.5-1.72,1.72-.92,1.59-2.31,4.36-2.82,5.51A2.42,2.42,0,0,0,27,32c0,1.25,0,1.52,0,2.85,0,.78.07,1.41.78,1.57.4.1.92.18,1.48.31A2.44,2.44,0,0,1,29.18,38c-.68,0-2.78-.1-4.19-.1-1.88,0-2.49.1-3.81.1a2.17,2.17,0,0,1,0-1.23,13.3,13.3,0,0,0,1.62-.31c.59-.18.71-.68.71-1.41,0-1.23,0-1.59,0-2.74a4.35,4.35,0,0,0-.35-1.39c-.42-1.07-1.79-3.87-2.64-5.57-.66-1.33-1.08-1.7-1.65-1.88a6.85,6.85,0,0,0-1.41-.26A2.35,2.35,0,0,1,17.55,22"/><path class="cls-1" d="M45.71,38c-1,0-2.45-.08-4.26-.08-2,0-3.53.08-4.35.08-.19-.18.12-1.1.28-1.25a9,9,0,0,0,1.32-.29c.71-.18.87-.47.94-1.46.12-2.74.09-6.72.09-10.9,0-.05-.07-.23-.14-.23a18.23,18.23,0,0,0-2.1,0c-.38,0-.73.16-1.11,1a20.92,20.92,0,0,0-.8,2.22c-.12.13-1.15-.1-1.25-.37.19-1.1.47-3.34.56-4.76,0-.05.21-.24.28-.21a6.8,6.8,0,0,0,2.26.34h8.24a10.32,10.32,0,0,0,3-.29c.09,0,.17.21.17.26a33.5,33.5,0,0,0-.61,4.83,2.07,2.07,0,0,1-1.25.08,13.8,13.8,0,0,0-.45-2.38c-.16-.6-.42-.76-.82-.81a16.89,16.89,0,0,0-2.28,0,.31.31,0,0,0-.12.24c0,3.79-.07,9.77,0,11.21,0,.26,0,.89.54,1.15a11.51,11.51,0,0,0,1.93.39A1.93,1.93,0,0,1,45.71,38"/></svg>