<svg xmlns="http://www.w3.org/2000/svg" viewBox="0 0 54.05 44.95"><defs><style>.cls-1{fill:#fcee21;}</style></defs><title>資產 4</title><g id="圖層_2" data-name="圖層 2"><g id="圖層_1-2" data-name="圖層 1"><path class="cls-1" d="M53.12,5.8h0a1.89,1.89,0,0,0-1.94.47,16.88,16.88,0,0,0-1.28,1.16L49.34,8a.08.08,0,0,1-.08,0,.08.08,0,0,1-.05,0L49,7.54a1.71,1.71,0,0,0-1.58-1.21,1.61,1.61,0,0,0-1.5,1.15,12.53,12.53,0,0,0-.45,1.28c0,.16-.1.31-.14.45a.08.08,0,0,1-.08.05,1.88,1.88,0,0,0-1.5.48A4.27,4.27,0,0,0,42.59,12c-.09.31-.2.65-.34,1.07a.09.09,0,0,1-.06.06c-1,.23-1.52.64-1.5,2.17a32.07,32.07,0,0,0,.46,4.78A2.22,2.22,0,0,1,40.63,22a14.72,14.72,0,0,1-5.2,3.72l-.77.39c-2.68,1.37-5.45,2.78-7.57,5.22l-.06,0,0,0h0l-.15-.18a2.5,2.5,0,0,0-.26-.28l-.45-.38a30.46,30.46,0,0,0-3.69-2.83c-1-.6-2-1.14-3.1-1.67-.85-.43-1.73-.87-2.55-1.34a15.25,15.25,0,0,1-2.48-1.94L13.43,22a2,2,0,0,1-.5-2,38,38,0,0,0,.45-4.66,2.64,2.64,0,0,0-.5-1.93,1.05,1.05,0,0,0-.87-.28.08.08,0,0,1-.07,0,4,4,0,0,1-.43-1.45,6.94,6.94,0,0,0-.25-1.1A2.51,2.51,0,0,0,10,9a1.07,1.07,0,0,0-.9.25L9,9.39a.08.08,0,0,1-.09,0c-.15-.29-.29-.61-.42-.89a6.2,6.2,0,0,0-1-1.78,1.52,1.52,0,0,0-1.39-.53c-.33.08-.79.35-1.1,1.21-.12.31-.28.34-.33.35C4.34,7.75,4,7.35,3.74,7a2.26,2.26,0,0,0-.31-.34l-.19-.19a2,2,0,0,0-.32-.29,1.91,1.91,0,0,0-2-.34A2,2,0,0,0,0,7.6,10.08,10.08,0,0,0,.14,10c.3,1.86.67,4.07,1.16,6.3l.21,1c.53,2.48,1.08,5,1.79,7.49a12,12,0,0,0,2,4.4C5.85,29.79,6.45,30.39,7,31c1.11,1.1,2.26,2.24,3.44,3.27a29.46,29.46,0,0,0,2.73,2c.56.38,1.12.77,1.66,1.17a4.65,4.65,0,0,1,2,4.47,6.69,6.69,0,0,0,0,2c.08.4.49.93.75,1a.51.51,0,0,0,.46-.12A1.13,1.13,0,0,0,18.4,44c0-.38,0-.77,0-1.16a11.16,11.16,0,0,0-.11-2.57,6.21,6.21,0,0,0-1.39-3.05,35.09,35.09,0,0,0-3.55-2.81l-.08-.06c-.52-.38-1.1-.8-1.65-1.22l-.35-.27a30.22,30.22,0,0,1-2.4-2l-.15-.14-.06-.06A13.86,13.86,0,0,1,5.61,27a18.55,18.55,0,0,1-1.67-5.49l0-.2Q3.47,19,3,16.71l-.11-.54Q2.3,13,1.71,9.92a9.9,9.9,0,0,1-.13-1.33c0-.21,0-.41,0-.62a.09.09,0,0,1,.06-.09s.53-.17,1.17.55A2.1,2.1,0,0,1,3,8.66l0,.07c.12.18.25.36.36.55a8.43,8.43,0,0,1,.58,1.15A10.62,10.62,0,0,1,4.62,13c0,.34.55,3,.69,3.39l.17.53c1,3.06,1.88,5.81,2.94,8.52A10.18,10.18,0,0,0,12,29.5l.33.23.08.05.45.31a1.2,1.2,0,0,0,.91.27.75.75,0,0,0,.44-.41c.3-.56,0-.85-.52-1.25-1.13-1-2.24-2-3.27-3a2.37,2.37,0,0,1-.41-.6c-.07-.13-.14-.26-.22-.38l-.31-.65c-.56-1.45-1.09-2.89-1.6-4.3l-.57-1.55a.09.09,0,0,1,0-.1,1.35,1.35,0,0,1,1-.41,1.23,1.23,0,0,1,.81.6c.23.34.45.7.64,1s.49.81.76,1.19a39.76,39.76,0,0,0,2.87,3.58,28.38,28.38,0,0,0,3.82,2.51l.07,0,1.66,1,.48.3c1.83,1.14,3.72,2.32,5.52,3.56a3.18,3.18,0,0,1,1.22,2.85c0,1.38,0,2.77,0,4.16,0,1.05,0,2.1,0,3.16,0,.86.26,1.28.79,1.29a.66.66,0,0,0,.53-.19,1.53,1.53,0,0,0,.27-1.09c0-.7,0-1.39,0-2.13,0-1.21,0-2.45,0-3.69-.07-1.8.12-3.81,2-5.08,1.46-1,2.81-1.81,4.12-2.57.71-.41,1.44-.8,2.15-1.18,1.12-.6,2.27-1.21,3.35-1.91A10.79,10.79,0,0,0,42,22.73a27.18,27.18,0,0,0,1.55-2.33c.32-.52.68-1.1,1.06-1.65.53-.76,1-1.34,2-.69a.09.09,0,0,1,0,.1c-1.53,6.46-3.25,8.32-4.16,8.88l-.91.7a17.22,17.22,0,0,0-1.41,1.15,1.23,1.23,0,0,0-.3,1l.12.36.15-.12.13.06a1,1,0,0,0,.35.09h.06l.06,0a11.94,11.94,0,0,0,3.48-2.45c1.9-1.91,2.67-4.68,3.4-7.36l0-.08c.52-1.9,1-3.86,1.4-5.75l.12-.5c.19-.84.39-1.68.59-2.52.37-1.54,1.7-3.68,2.36-4a.35.35,0,0,1,.3,0c.51.23.22,1.48,0,2.59,0,.18-.08.35-.11.5-.32,1.54-.67,3.09-1,4.59-.55,2.47-1.18,5.27-1.68,8a14.35,14.35,0,0,1-.8,2.63l0,.1c-1.31,3.36-4,5.38-6.58,7.34l-.62.47c-1.46,1.11-3,2.26-4.42,3.49a4.12,4.12,0,0,0-1.42,2.95,29.42,29.42,0,0,0,0,3.83,1.27,1.27,0,0,0,.72.9h.11a.54.54,0,0,0,.38-.14,1.08,1.08,0,0,0,.28-.81c0-.37,0-.74,0-1.18v-.09c0-.5,0-1,0-1.5a3.58,3.58,0,0,1,1.3-3.12c1.85-1.42,3.72-2.78,5.3-3.91A38.34,38.34,0,0,0,48,30.46a22.61,22.61,0,0,0,3.69-8.73c.7-3.08,1.27-6.26,1.82-9.32l.3-1.69A13.08,13.08,0,0,0,54,7.6,2,2,0,0,0,53.12,5.8ZM46.53,15.92c-.51-1.15-.55-5.71.85-7.5,0,0,.11-.05.1-.06.38.54-.28,6.38-.47,7.53-.06.27-.11.32-.18.32S46.62,16.11,46.53,15.92ZM42.86,19.4l-.06-.27a.32.32,0,0,1-.2-.08A3.39,3.39,0,0,1,42,17a2.52,2.52,0,0,1,.21-1.85.42.42,0,0,1,.29-.14h0a.09.09,0,0,1,.08.08L42.9,19a.09.09,0,0,1-.07.1Zm1.85-8.27V16a.09.09,0,0,1-.07.09.29.29,0,0,1-.2-.1c-.22-.21-.48-.84-.53-2.61,0-1.23.12-2,.44-2.28A.39.39,0,0,1,44.6,11h0A.09.09,0,0,1,44.71,11.13ZM9.94,16.33h0a.09.09,0,0,1,0,0c-.07,0-.08,0-.09,0-.65-.84-.82-4.44-.26-5.66a.09.09,0,0,1,.05,0h0a.08.08,0,0,1,.06,0C10.27,11.25,10.37,15.48,9.94,16.33Zm2-1.39c0,.54-.09,1.15-.15,1.77v0c-.06.65-.12,1.31-.16,1.93,0,0,0,.06-.08.08a.08.08,0,0,1-.06,0c-.51-.62-.52-2-.05-3.51.17-.33.31-.38.41-.38h0A.09.09,0,0,1,12,14.94ZM7.32,16.21a.09.09,0,0,1-.08.05.08.08,0,0,1-.06,0c-.93-1-1.45-5.75-.81-7.41a.09.09,0,0,1,.06-.05h0l.06,0C7.19,9.38,7.91,14.81,7.32,16.21Zm5.27,13.35h0Z"/><path class="cls-1" d="M27.22,22.76a1,1,0,0,1-.51-.14c-.39-.24-9.67-5.9-11.28-11.31-1.54-5.2.09-9.4,4.26-11a5.83,5.83,0,0,1,5.51.93,11.59,11.59,0,0,1,2,1.8C28.54,1.65,31.3-.65,34.61.31h0A6.69,6.69,0,0,1,38.8,3.65,9.84,9.84,0,0,1,39,11.32c-1.79,5.32-10.83,11-11.22,11.29A1,1,0,0,1,27.22,22.76ZM21.53,2a3.23,3.23,0,0,0-1.14.21c-3.2,1.2-4.32,4.32-3.06,8.55,1.19,4,7.94,8.6,9.88,9.85a51.44,51.44,0,0,0,4.16-3.09c3.11-2.57,5.08-4.93,5.72-6.82a7.92,7.92,0,0,0,0-6.12,4.69,4.69,0,0,0-3-2.36A4.42,4.42,0,0,0,30.3,3,9.86,9.86,0,0,0,28,5.21a1,1,0,0,1-.8.41h0a1,1,0,0,1-.8-.4,10.56,10.56,0,0,0-2.32-2.31A4.5,4.5,0,0,0,21.53,2Z"/></g></g></svg>