<svg xmlns="http://www.w3.org/2000/svg" viewBox="0 0 45.2 37.59"><defs><style>.cls-1{fill:#fcff9f;}</style></defs><title>資產 2</title><g id="圖層_2" data-name="圖層 2"><g id="圖層_1-2" data-name="圖層 1"><path class="cls-1" d="M44.42,4.85h0a1.58,1.58,0,0,0-1.63.39,14.11,14.11,0,0,0-1.07,1l-.47.44a.06.06,0,0,1-.06,0,.07.07,0,0,1,0,0L41,6.31a1.43,1.43,0,0,0-1.32-1,1.35,1.35,0,0,0-1.25,1A10.52,10.52,0,0,0,38,7.33l-.12.38a.07.07,0,0,1-.06,0,1.57,1.57,0,0,0-1.25.4,3.57,3.57,0,0,0-1,1.87c-.08.26-.17.55-.28.89a.07.07,0,0,1-.05,0c-.82.19-1.27.53-1.25,1.81a26.82,26.82,0,0,0,.38,4A1.86,1.86,0,0,1,34,18.4a12.31,12.31,0,0,1-4.35,3.11l-.64.33a19.77,19.77,0,0,0-6.33,4.37l-.05,0,0,0h0l-.13-.15a2.09,2.09,0,0,0-.22-.23l-.38-.32a25.46,25.46,0,0,0-3.09-2.36c-.81-.5-1.71-1-2.59-1.39-.71-.36-1.45-.73-2.13-1.12A12.76,12.76,0,0,1,11.95,19l-.72-.64a1.65,1.65,0,0,1-.42-1.64,31.79,31.79,0,0,0,.38-3.9,2.21,2.21,0,0,0-.42-1.61A.88.88,0,0,0,10,11,.07.07,0,0,1,10,11a3.32,3.32,0,0,1-.36-1.21,5.79,5.79,0,0,0-.21-.92,2.1,2.1,0,0,0-1-1.25.89.89,0,0,0-.75.21l-.12.08a.07.07,0,0,1-.07,0c-.13-.25-.24-.51-.35-.75a5.18,5.18,0,0,0-.86-1.49,1.28,1.28,0,0,0-1.16-.44c-.28.06-.66.29-.92,1-.1.26-.23.28-.27.29-.26,0-.53-.29-.76-.57a1.89,1.89,0,0,0-.26-.28L2.7,5.42a1.66,1.66,0,0,0-.26-.25A1.6,1.6,0,0,0,.81,4.89,1.7,1.7,0,0,0,0,6.36a8.43,8.43,0,0,0,.09,2c.25,1.56.56,3.4,1,5.27l.18.84c.44,2.07.91,4.21,1.5,6.26A10,10,0,0,0,4.4,24.45c.49.47,1,1,1.49,1.46.93.92,1.89,1.87,2.88,2.73a24.65,24.65,0,0,0,2.28,1.69c.46.32.94.64,1.39,1a3.88,3.88,0,0,1,1.68,3.74,5.6,5.6,0,0,0,0,1.71c.07.34.41.78.63.82a.43.43,0,0,0,.39-.1,1,1,0,0,0,.24-.7c0-.32,0-.65,0-1a9.34,9.34,0,0,0-.09-2.15,5.19,5.19,0,0,0-1.16-2.55,29.33,29.33,0,0,0-3-2.35l-.07,0c-.44-.32-.92-.67-1.38-1l-.29-.22a25.31,25.31,0,0,1-2-1.65l-.12-.11-.05,0a11.6,11.6,0,0,1-2.58-3A15.51,15.51,0,0,1,3.3,18l0-.17Q2.9,15.91,2.52,14l-.09-.45q-.51-2.61-1-5.22a8.29,8.29,0,0,1-.11-1.11c0-.17,0-.35,0-.52a.07.07,0,0,1,0-.08s.44-.14,1,.46a1.76,1.76,0,0,1,.15.19l0,.06c.1.15.21.3.3.46a7.05,7.05,0,0,1,.48,1,8.88,8.88,0,0,1,.57,2.15c0,.29.46,2.49.57,2.84l.14.44C5.4,16.7,6.15,19,7,21.27a8.51,8.51,0,0,0,3,3.4l.28.19.06,0,.38.26a1,1,0,0,0,.76.23.63.63,0,0,0,.37-.34c.25-.47,0-.71-.43-1-.95-.8-1.87-1.66-2.74-2.47A2,2,0,0,1,8.4,21c-.06-.11-.12-.22-.18-.32L8,20.18C7.49,19,7,17.76,6.61,16.58l-.48-1.3a.08.08,0,0,1,0-.08A1.13,1.13,0,0,1,7,14.86a1,1,0,0,1,.68.5c.19.28.38.59.54.86s.41.68.63,1a33.28,33.28,0,0,0,2.4,3,23.74,23.74,0,0,0,3.19,2.1l.06,0,1.39.84.4.25c1.53,1,3.11,1.94,4.61,3a2.66,2.66,0,0,1,1,2.38c0,1.16,0,2.32,0,3.48,0,.88,0,1.76,0,2.64,0,.72.22,1.07.66,1.08a.55.55,0,0,0,.44-.16,1.28,1.28,0,0,0,.23-.91c0-.58,0-1.16,0-1.78,0-1,0-2.05,0-3.09-.06-1.51.1-3.19,1.69-4.24,1.22-.81,2.35-1.51,3.44-2.15.59-.35,1.21-.67,1.8-1,.93-.5,1.9-1,2.8-1.6A9,9,0,0,0,35.13,19a22.67,22.67,0,0,0,1.3-2c.27-.43.57-.92.88-1.38.44-.64.87-1.12,1.65-.58a.08.08,0,0,1,0,.08c-1.28,5.4-2.72,7-3.48,7.43l-.76.59a14.42,14.42,0,0,0-1.18,1,1,1,0,0,0-.25.86l.1.3.12-.1.11.05a.85.85,0,0,0,.29.08H34l0,0a10,10,0,0,0,2.91-2c1.59-1.6,2.23-3.91,2.84-6.15l0-.07c.44-1.59.81-3.22,1.17-4.81l.1-.42c.16-.7.32-1.41.49-2.11a7.07,7.07,0,0,1,2-3.36.29.29,0,0,1,.25,0c.42.19.18,1.24,0,2.17l-.09.41c-.27,1.29-.56,2.58-.84,3.83-.46,2.07-1,4.41-1.41,6.68a12,12,0,0,1-.67,2.2l0,.08c-1.09,2.81-3.33,4.5-5.5,6.14l-.52.39c-1.22.93-2.48,1.89-3.7,2.92a3.45,3.45,0,0,0-1.19,2.46,24.58,24.58,0,0,0,0,3.21,1.06,1.06,0,0,0,.6.76h.1a.45.45,0,0,0,.31-.12.9.9,0,0,0,.23-.68c0-.31,0-.62,0-1v-.08c0-.42,0-.83,0-1.25a3,3,0,0,1,1.09-2.61c1.55-1.19,3.11-2.32,4.43-3.27a32.05,32.05,0,0,0,3.54-3.13,18.91,18.91,0,0,0,3.09-7.3c.59-2.58,1.06-5.23,1.52-7.8L45,9a10.94,10.94,0,0,0,.19-2.61A1.67,1.67,0,0,0,44.42,4.85Zm-5.51,8.46c-.42-1-.46-4.77.71-6.27,0,0,.09,0,.09-.05.32.45-.23,5.33-.39,6.3-.05.22-.09.27-.15.27S39,13.48,38.91,13.31Zm-3.07,2.91,0-.22a.27.27,0,0,1-.16-.07,2.84,2.84,0,0,1-.55-1.69,2.11,2.11,0,0,1,.17-1.54.35.35,0,0,1,.24-.12h0a.07.07,0,0,1,.07.07l.31,3.28a.07.07,0,0,1-.06.08Zm1.55-6.92v4.11a.07.07,0,0,1-.06.07.25.25,0,0,1-.17-.08c-.18-.18-.41-.7-.44-2.18,0-1,.1-1.67.37-1.9a.32.32,0,0,1,.21-.09h0A.08.08,0,0,1,37.39,9.31ZM8.31,13.65h0a.07.07,0,0,1,0,0c-.06,0-.07,0-.08,0C7.65,13,7.52,10,8,8.93a.07.07,0,0,1,0,0H8a.07.07,0,0,1,.05,0C8.59,9.4,8.67,12.94,8.31,13.65ZM10,12.49c0,.45-.08,1-.13,1.48v0c0,.54-.1,1.1-.14,1.62,0,0,0,.05-.07.07a.07.07,0,0,1-.05,0,3.5,3.5,0,0,1,0-2.94c.14-.27.26-.32.35-.32h0A.08.08,0,0,1,10,12.49Zm-3.9,1.06a.08.08,0,0,1-.07,0l-.05,0c-.78-.87-1.21-4.81-.68-6.2a.07.07,0,0,1,0,0h0l0,0C6,7.85,6.61,12.39,6.12,13.56Zm4.41,11.17h0Z"/><path class="cls-1" d="M22.76,19a.83.83,0,0,1-.43-.12C22,18.72,14.24,14,12.9,9.45,11.61,5.11,13,1.59,16.47.28a4.87,4.87,0,0,1,4.61.78,9.69,9.69,0,0,1,1.68,1.51C23.87,1.38,26.18-.54,28.94.26h0A5.59,5.59,0,0,1,32.45,3a8.23,8.23,0,0,1,.14,6.42c-1.5,4.45-9.06,9.24-9.38,9.44A.83.83,0,0,1,22.76,19ZM18,1.66a2.7,2.7,0,0,0-1,.18c-2.68,1-3.61,3.61-2.56,7.15,1,3.36,6.64,7.19,8.27,8.24a43,43,0,0,0,3.48-2.59c2.6-2.15,4.25-4.12,4.78-5.7a6.62,6.62,0,0,0,0-5.12,3.93,3.93,0,0,0-2.5-2,3.69,3.69,0,0,0-3.14.66,8.25,8.25,0,0,0-1.93,1.85.83.83,0,0,1-.67.34h0a.83.83,0,0,1-.67-.34,8.83,8.83,0,0,0-1.94-1.94A3.77,3.77,0,0,0,18,1.66Z"/></g></g></svg>